<svg enable-background="new 0 0 500 500" viewBox="0 0 500 500" xmlns="http://www.w3.org/2000/svg"><g fill="#e0e0e0"><path d="m271.7 100.8c0-.1.6-.1 1.3-.1h.4l-.1.1c0-.5.1-.9.1-.9.1 0 .1.4.1.9v.1h-.1c-.2 0-.3 0-.4 0-.7.1-1.3 0-1.3-.1z"/><path d="m268.3 100.8c0-.1.4-.1.9-.1s.9.1.9.1c0 .1-.4.1-.9.1-.6.1-.9 0-.9-.1z"/><path d="m264.8 100.8c0-.1.4-.1.9-.1s.9.1.9.1c0 .1-.4.1-.9.1-.5.1-.9 0-.9-.1z"/><path d="m261.4 100.8c0-.1.4-.1.9-.1s.9.1.9.1c0 .1-.4.1-.9.1-.5.1-.9 0-.9-.1z"/><path d="m258 100.8c0-.1.4-.1.9-.1s.9.1.9.1c0 .1-.4.1-.9.1-.5.1-.9 0-.9-.1z"/><path d="m254.6 100.8c0-.1.4-.1.9-.1s.9.1.9.1c0 .1-.4.1-.9.1-.6.1-.9 0-.9-.1z"/><path d="m251.1 100.8c0-.1.4-.1.9-.1s.9.1.9.1c0 .1-.4.1-.9.1-.5.1-.9 0-.9-.1z"/><path d="m247.7 100.8c0-.1.4-.1.9-.1s.9.1.9.1c0 .1-.4.1-.9.1-.5.1-.9 0-.9-.1z"/><path d="m244.3 100.8c0-.1.4-.1.9-.1s.9.1.9.1c0 .1-.4.1-.9.1-.5.1-.9 0-.9-.1z"/><path d="m240.8 100.8c0-.1.4-.1.9-.1s.9.1.9.1c0 .1-.4.1-.9.1-.5.1-.9 0-.9-.1z"/><path d="m237.4 100.8c0-.1.4-.1.9-.1s.9.1.9.1c0 .1-.4.1-.9.1-.5.1-.9 0-.9-.1z"/><path d="m234 100.8c0-.1.4-.1.9-.1s.9.1.9.1c0 .1-.4.1-.9.1-.5.1-.9 0-.9-.1z"/><path d="m230.6 100.8c0-.1.4-.1.9-.1s.9.1.9.1c0 .1-.4.1-.9.1-.6.1-.9 0-.9-.1z"/><path d="m227.1 100.8c0-.1.4-.1.9-.1s.9.1.9.1c0 .1-.4.1-.9.1-.5.1-.9 0-.9-.1z"/><path d="m223.7 100.8c0-.1.4-.1.9-.1s.9.1.9.1c0 .1-.4.1-.9.1-.5.1-.9 0-.9-.1z"/><path d="m220.3 100.8c0-.1.4-.1.9-.1s.9.1.9.1c0 .1-.4.1-.9.1-.5.1-.9 0-.9-.1z"/><path d="m216.9 100.8c0-.1.4-.1.9-.1s.9.1.9.1c0 .1-.4.1-.9.1-.6.1-.9 0-.9-.1z"/><path d="m213.4 100.8c0-.1.4-.1.9-.1s.9.1.9.1c0 .1-.4.1-.9.1-.5.1-.9 0-.9-.1z"/><path d="m212.4 98.4c.1 0 .1.4.1.9s-.1.9-.1.9c-.1 0-.1-.4-.1-.9-.1-.5 0-.9.1-.9z"/><path d="m212.4 95c.1 0 .1.4.1.9s-.1.9-.1.9c-.1 0-.1-.4-.1-.9-.1-.5 0-.9.1-.9z"/><path d="m212.4 91.6c.1 0 .1.4.1.9s-.1.9-.1.9c-.1 0-.1-.4-.1-.9s0-.9.1-.9z"/><path d="m212.4 88.2c.1 0 .1.4.1.9s-.1.9-.1.9c-.1 0-.1-.4-.1-.9-.1-.5 0-.9.1-.9z"/><path d="m212.4 84.7c.1 0 .1.4.1.9s-.1.9-.1.9c-.1 0-.1-.4-.1-.9-.1-.5 0-.9.1-.9z"/><path d="m212.4 81.3c.1 0 .1.4.1.9s-.1.9-.1.9c-.1 0-.1-.4-.1-.9-.1-.5 0-.9.1-.9z"/><path d="m212.4 77.9c.1 0 .1.4.1.9s-.1.9-.1.9c-.1 0-.1-.4-.1-.9-.1-.5 0-.9.1-.9z"/><path d="m212.4 74.5c.1 0 .1.4.1.9s-.1.9-.1.9c-.1 0-.1-.4-.1-.9s0-.9.1-.9z"/><path d="m212.4 71c.1 0 .1.4.1.9s-.1.9-.1.9c-.1 0-.1-.4-.1-.9-.1-.5 0-.9.1-.9z"/><path d="m212.4 67.6c.1 0 .1.4.1.9s-.1.9-.1.9c-.1 0-.1-.4-.1-.9-.1-.5 0-.9.1-.9z"/><path d="m212.4 64.2c.1 0 .1.4.1.9s-.1.9-.1.9c-.1 0-.1-.4-.1-.9s0-.9.1-.9z"/><path d="m212.4 60.8c.1 0 .1.4.1.9s-.1.9-.1.9c-.1 0-.1-.4-.1-.9-.1-.6 0-.9.1-.9z"/><path d="m212.4 57.3c.1 0 .1.4.1.9s-.1.9-.1.9c-.1 0-.1-.4-.1-.9-.1-.5 0-.9.1-.9z"/><path d="m212.4 53.9c.1 0 .1.4.1.9s-.1.9-.1.9c-.1 0-.1-.4-.1-.9-.1-.5 0-.9.1-.9z"/><path d="m212.4 50.5c.1 0 .1.4.1.9s-.1.9-.1.9c-.1 0-.1-.4-.1-.9-.1-.5 0-.9.1-.9z"/><path d="m212.4 47c.1 0 .1.4.1.9s-.1.9-.1.9c-.1 0-.1-.4-.1-.9-.1-.5 0-.9.1-.9z"/><path d="m212.4 43.6c.1 0 .1.4.1.9s-.1.9-.1.9c-.1 0-.1-.4-.1-.9-.1-.5 0-.9.1-.9z"/><path d="m212.4 40.2c.1 0 .1.4.1.9s-.1.9-.1.9c-.1 0-.1-.4-.1-.9-.1-.5 0-.9.1-.9z"/><path d="m215.4 39.8c0 .1-.4.1-.9.1s-.9-.1-.9-.1c0-.1.4-.1.9-.1.5-.1.9 0 .9.1z"/><path d="m218.8 39.8c0 .1-.4.1-.9.1s-.9-.1-.9-.1c0-.1.4-.1.9-.1.5-.1.9 0 .9.1z"/><path d="m222.2 39.8c0 .1-.4.1-.9.1s-.9-.1-.9-.1c0-.1.4-.1.9-.1.5-.1.9 0 .9.1z"/><path d="m225.6 39.8c0 .1-.4.1-.9.1s-.9-.1-.9-.1c0-.1.4-.1.9-.1.6-.1.9 0 .9.1z"/><path d="m229.1 39.8c0 .1-.4.1-.9.1s-.9-.1-.9-.1c0-.1.4-.1.9-.1.5-.1.9 0 .9.1z"/><path d="m232.5 39.8c0 .1-.4.1-.9.1s-.9-.1-.9-.1c0-.1.4-.1.9-.1.5-.1.9 0 .9.1z"/><path d="m235.9 39.8c0 .1-.4.1-.9.1s-.9-.1-.9-.1c0-.1.4-.1.9-.1.5-.1.9 0 .9.1z"/><path d="m239.3 39.8c0 .1-.4.1-.9.1s-.9-.1-.9-.1c0-.1.4-.1.9-.1.6-.1.9 0 .9.1z"/><path d="m242.8 39.8c0 .1-.4.1-.9.1s-.9-.1-.9-.1c0-.1.4-.1.9-.1.5-.1.9 0 .9.1z"/><path d="m246.2 39.8c0 .1-.4.1-.9.1s-.9-.1-.9-.1c0-.1.4-.1.9-.1.5-.1.9 0 .9.1z"/><path d="m249.6 39.8c0 .1-.4.1-.9.1s-.9-.1-.9-.1c0-.1.4-.1.9-.1.5-.1.9 0 .9.1z"/><path d="m253.1 39.8c0 .1-.4.1-.9.1s-.9-.1-.9-.1c0-.1.4-.1.9-.1.5-.1.9 0 .9.1z"/><path d="m256.5 39.8c0 .1-.4.1-.9.1s-.9-.1-.9-.1c0-.1.4-.1.9-.1.5-.1.9 0 .9.1z"/><path d="m259.9 39.8c0 .1-.4.1-.9.1s-.9-.1-.9-.1c0-.1.4-.1.9-.1.5-.1.9 0 .9.1z"/><path d="m263.3 39.8c0 .1-.4.1-.9.1s-.9-.1-.9-.1c0-.1.4-.1.9-.1.6-.1.9 0 .9.1z"/><path d="m266.8 39.8c0 .1-.4.1-.9.1s-.9-.1-.9-.1c0-.1.4-.1.9-.1.5-.1.9 0 .9.1z"/><path d="m270.2 39.8c0 .1-.4.1-.9.1s-.9-.1-.9-.1c0-.1.4-.1.9-.1.5-.1.9 0 .9.1z"/><path d="m273.4 40s-.1-.1-.1-.2l.1.1c-.2 0-.4.1-.6.1-.5 0-.9-.1-.9-.1 0-.1.4-.1.9-.1h.6.1v.1s-.1.1-.1.1z"/><path d="m273.4 43.4c-.1 0-.1-.4-.1-.9s.1-.9.1-.9c.1 0 .1.4.1.9s0 .9-.1.9z"/><path d="m273.4 46.8c-.1 0-.1-.4-.1-.9s.1-.9.1-.9c.1 0 .1.4.1.9 0 .6 0 .9-.1.9z"/><path d="m273.4 50.3c-.1 0-.1-.4-.1-.9s.1-.9.1-.9c.1 0 .1.4.1.9s0 .9-.1.9z"/><path d="m273.4 53.7c-.1 0-.1-.4-.1-.9s.1-.9.1-.9c.1 0 .1.4.1.9s0 .9-.1.9z"/><path d="m273.4 57.1c-.1 0-.1-.4-.1-.9s.1-.9.1-.9c.1 0 .1.4.1.9s0 .9-.1.9z"/><path d="m273.4 60.5c-.1 0-.1-.4-.1-.9s.1-.9.1-.9c.1 0 .1.4.1.9 0 .6 0 .9-.1.9z"/><path d="m273.4 64c-.1 0-.1-.4-.1-.9s.1-.9.1-.9c.1 0 .1.4.1.9s0 .9-.1.9z"/><ellipse cx="273.4" cy="66.5" rx=".1" ry=".9"/><path d="m273.4 70.8c-.1 0-.1-.4-.1-.9s.1-.9.1-.9c.1 0 .1.4.1.9s0 .9-.1.9z"/><path d="m273.4 74.3c-.1 0-.1-.4-.1-.9s.1-.9.1-.9c.1 0 .1.4.1.9s0 .9-.1.9z"/><ellipse cx="273.4" cy="76.8" rx=".1" ry=".9"/><path d="m273.4 81.1c-.1 0-.1-.4-.1-.9s.1-.9.1-.9c.1 0 .1.4.1.9s0 .9-.1.9z"/><path d="m273.4 84.5c-.1 0-.1-.4-.1-.9s.1-.9.1-.9c.1 0 .1.4.1.9 0 .6 0 .9-.1.9z"/><path d="m273.4 88c-.1 0-.1-.4-.1-.9s.1-.9.1-.9c.1 0 .1.4.1.9s0 .9-.1.9z"/><path d="m273.4 91.4c-.1 0-.1-.4-.1-.9s.1-.9.1-.9c.1 0 .1.4.1.9s0 .9-.1.9z"/><ellipse cx="273.4" cy="94" rx=".1" ry=".9"/><path d="m273.4 98.2c-.1 0-.1-.4-.1-.9s.1-.9.1-.9c.1 0 .1.4.1.9 0 .6 0 .9-.1.9z"/><path d="m271.1 97.9h4.5v4.5h-4.5z"/><path d="m210.1 98.5h4.5v4.5h-4.5z"/><path d="m271.1 37.1h4.5v4.5h-4.5z"/><path d="m210.1 37.5h4.5v4.5h-4.5z"/><path d="m156.6 466.7c0-.1.7-.3 1.6-.3s1.6.1 1.6.3c0 .1-.7.3-1.6.3-.9-.1-1.6-.2-1.6-.3z"/><path d="m150.3 466.7c0-.1.7-.3 1.6-.3s1.6.1 1.6.3c0 .1-.7.3-1.6.3-.9-.1-1.6-.2-1.6-.3z"/><path d="m144.1 466.7c0-.1.7-.3 1.6-.3s1.6.1 1.6.3c0 .1-.7.3-1.6.3-.9-.1-1.6-.2-1.6-.3z"/><path d="m137.9 466.7c0-.1.7-.3 1.6-.3s1.6.1 1.6.3c0 .1-.7.3-1.6.3-.9-.1-1.6-.2-1.6-.3z"/><path d="m131.6 466.7c0-.1.7-.3 1.6-.3s1.6.1 1.6.3c0 .1-.7.3-1.6.3-.9-.1-1.6-.2-1.6-.3z"/><path d="m125.4 466.7c0-.1.7-.3 1.6-.3s1.6.1 1.6.3c0 .1-.7.3-1.6.3-.9-.1-1.6-.2-1.6-.3z"/><path d="m119.2 466.7c0-.1.7-.3 1.6-.3s1.6.1 1.6.3c0 .1-.7.3-1.6.3-.9-.1-1.6-.2-1.6-.3z"/><path d="m112.9 466.7c0-.1.7-.3 1.6-.3s1.6.1 1.6.3c0 .1-.7.3-1.6.3-.9-.1-1.6-.2-1.6-.3z"/><path d="m106.7 466.7c0-.1.7-.3 1.6-.3s1.6.1 1.6.3c0 .1-.7.3-1.6.3-.9-.1-1.6-.2-1.6-.3z"/><path d="m100.5 466.7c0-.1.7-.3 1.6-.3s1.6.1 1.6.3c0 .1-.7.3-1.6.3-.9-.1-1.6-.2-1.6-.3z"/><path d="m94.2 466.7c0-.1.7-.3 1.6-.3s1.6.1 1.6.3c0 .1-.7.3-1.6.3-.9-.1-1.6-.2-1.6-.3z"/><path d="m88 466.7c0-.1.7-.3 1.6-.3s1.6.1 1.6.3c0 .1-.7.3-1.6.3-.9-.1-1.6-.2-1.6-.3z"/><path d="m83.5 464.9c.1 0 .3.7.3 1.6v.2l-.3-.3c.8 0 1.3.1 1.3.3 0 .1-.6.2-1.3.3h-.3v-.3c0-.1 0-.2 0-.2.1-.9.2-1.6.3-1.6z"/><path d="m83.5 458.6c.1 0 .3.7.3 1.6s-.1 1.6-.3 1.6c-.1 0-.3-.7-.3-1.6.1-.9.2-1.6.3-1.6z"/><path d="m83.5 452.4c.1 0 .3.7.3 1.6s-.1 1.6-.3 1.6c-.1 0-.3-.7-.3-1.6.1-.9.2-1.6.3-1.6z"/><path d="m83.5 446.2c.1 0 .3.7.3 1.6s-.1 1.6-.3 1.6c-.1 0-.3-.7-.3-1.6.1-.9.2-1.6.3-1.6z"/><path d="m83.5 439.9c.1 0 .3.7.3 1.6s-.1 1.6-.3 1.6c-.1 0-.3-.7-.3-1.6.1-.9.2-1.6.3-1.6z"/><path d="m83.5 433.7c.1 0 .3.7.3 1.6s-.1 1.6-.3 1.6c-.1 0-.3-.7-.3-1.6.1-.9.2-1.6.3-1.6z"/><path d="m83.5 427.5c.1 0 .3.7.3 1.6s-.1 1.6-.3 1.6c-.1 0-.3-.7-.3-1.6.1-.9.2-1.6.3-1.6z"/><path d="m83.5 421.2c.1 0 .3.7.3 1.6s-.1 1.6-.3 1.6c-.1 0-.3-.7-.3-1.6.1-.9.2-1.6.3-1.6z"/><path d="m83.5 415c.1 0 .3.7.3 1.6s-.1 1.6-.3 1.6c-.1 0-.3-.7-.3-1.6.1-.9.2-1.6.3-1.6z"/><path d="m83.5 408.8c.1 0 .3.7.3 1.6s-.1 1.6-.3 1.6c-.1 0-.3-.7-.3-1.6.1-.9.2-1.6.3-1.6z"/><path d="m83.5 402.5c.1 0 .3.7.3 1.6s-.1 1.6-.3 1.6c-.1 0-.3-.7-.3-1.6.1-.9.2-1.6.3-1.6z"/><path d="m83.5 396.3c.1 0 .3.7.3 1.6s-.1 1.6-.3 1.6c-.1 0-.3-.7-.3-1.6.1-.9.2-1.6.3-1.6z"/><path d="m84 390.5c0 .1-.2.1-.5.2l.2-.2c0 .3.1.7.1 1.1 0 .9-.1 1.6-.3 1.6-.1 0-.3-.7-.3-1.6 0-.4 0-.8.1-1.1v-.2h.2c.3.1.5.1.5.2z"/><path d="m90.2 390.5c0 .1-.7.3-1.6.3s-1.6-.1-1.6-.3c0-.1.7-.3 1.6-.3s1.6.2 1.6.3z"/><path d="m96.5 390.5c0 .1-.7.3-1.6.3s-1.6-.1-1.6-.3c0-.1.7-.3 1.6-.3s1.6.2 1.6.3z"/><path d="m102.7 390.5c0 .1-.7.3-1.6.3s-1.6-.1-1.6-.3c0-.1.7-.3 1.6-.3s1.6.2 1.6.3z"/><path d="m108.9 390.5c0 .1-.7.3-1.6.3s-1.6-.1-1.6-.3c0-.1.7-.3 1.6-.3 1 0 1.6.2 1.6.3z"/><path d="m115.2 390.5c0 .1-.7.3-1.6.3s-1.6-.1-1.6-.3c0-.1.7-.3 1.6-.3s1.6.2 1.6.3z"/><path d="m121.4 390.5c0 .1-.7.3-1.6.3s-1.6-.1-1.6-.3c0-.1.7-.3 1.6-.3s1.6.2 1.6.3z"/><path d="m127.7 390.5c0 .1-.7.3-1.6.3s-1.6-.1-1.6-.3c0-.1.7-.3 1.6-.3s1.6.2 1.6.3z"/><path d="m133.9 390.5c0 .1-.7.3-1.6.3s-1.6-.1-1.6-.3c0-.1.7-.3 1.6-.3s1.6.2 1.6.3z"/><path d="m140.1 390.5c0 .1-.7.3-1.6.3s-1.6-.1-1.6-.3c0-.1.7-.3 1.6-.3s1.6.2 1.6.3z"/><path d="m146.4 390.5c0 .1-.7.3-1.6.3s-1.6-.1-1.6-.3c0-.1.7-.3 1.6-.3s1.6.2 1.6.3z"/><path d="m152.6 390.5c0 .1-.7.3-1.6.3s-1.6-.1-1.6-.3c0-.1.7-.3 1.6-.3s1.6.2 1.6.3z"/><path d="m158.8 390.5c0 .1-.7.3-1.6.3s-1.6-.1-1.6-.3c0-.1.7-.3 1.6-.3s1.6.2 1.6.3z"/><path d="m159.7 395.9c-.1 0-.3-.7-.3-1.6s.1-1.6.3-1.6c.1 0 .3.7.3 1.6s-.2 1.6-.3 1.6z"/><path d="m159.7 402.1c-.1 0-.3-.7-.3-1.6s.1-1.6.3-1.6c.1 0 .3.7.3 1.6s-.2 1.6-.3 1.6z"/><path d="m159.7 408.4c-.1 0-.3-.7-.3-1.6s.1-1.6.3-1.6c.1 0 .3.7.3 1.6s-.2 1.6-.3 1.6z"/><path d="m159.7 414.6c-.1 0-.3-.7-.3-1.6s.1-1.6.3-1.6c.1 0 .3.7.3 1.6s-.2 1.6-.3 1.6z"/><path d="m159.7 420.8c-.1 0-.3-.7-.3-1.6s.1-1.6.3-1.6c.1 0 .3.7.3 1.6s-.2 1.6-.3 1.6z"/><path d="m159.7 427.1c-.1 0-.3-.7-.3-1.6s.1-1.6.3-1.6c.1 0 .3.7.3 1.6s-.2 1.6-.3 1.6z"/><path d="m159.7 433.3c-.1 0-.3-.7-.3-1.6s.1-1.6.3-1.6c.1 0 .3.7.3 1.6s-.2 1.6-.3 1.6z"/><path d="m159.7 439.5c-.1 0-.3-.7-.3-1.6s.1-1.6.3-1.6c.1 0 .3.7.3 1.6s-.2 1.6-.3 1.6z"/><path d="m159.7 445.8c-.1 0-.3-.7-.3-1.6s.1-1.6.3-1.6c.1 0 .3.7.3 1.6s-.2 1.6-.3 1.6z"/><path d="m159.7 452c-.1 0-.3-.7-.3-1.6s.1-1.6.3-1.6c.1 0 .3.7.3 1.6s-.2 1.6-.3 1.6z"/><path d="m159.7 458.2c-.1 0-.3-.7-.3-1.6s.1-1.6.3-1.6c.1 0 .3.7.3 1.6 0 1-.2 1.6-.3 1.6z"/><path d="m159.7 464.5c-.1 0-.3-.7-.3-1.6s.1-1.6.3-1.6c.1 0 .3.7.3 1.6s-.2 1.6-.3 1.6z"/><path d="m156.9 463.1h5.6v5.6h-5.6z"/><path d="m80.7 463.8h5.6v5.6h-5.6z"/><path d="m156.9 387.1h5.6v5.6h-5.6z"/><path d="m80.7 387.7h5.6v5.6h-5.6z"/></g><path d="m127.1 403c21.7-17.5 24.8-47.5 22-74-.5-4.4-.3-9.1-2.7-12.9-2.4-3.7-7.5-6.1-11.3-3.9-3.2 1.8-4.4 5.7-6 9-2.2 4.4-5.6 8.1-9.7 10.7-2.7 1.7-6.2 2.8-9.1 1.5-4-1.8-4.8-7.1-5.1-11.5-.5-8.2-1-16.5-1.6-24.7-.3-4.4-.6-8.9-2.2-13-1.7-4.1-5-7.8-9.3-8.7s-9.3 1.9-9.9 6.3c-.2 1.8.3 3.7.3 5.5s-.7 3.9-2.4 4.6c-1.7.6-3.6-.5-5-1.7-4.9-4.1-8.4-9.7-11.6-15.2-3.3-5.5-6.5-11.2-11-15.7-4.5-4.6-10.5-8-16.8-7.9s-12.8 4.5-14 10.8 2.9 12.4 7.2 17.2c6.4 7.1 13.8 13.2 21.9 18.1 1.5.9 3 1.9 3.7 3.4 1.2 2.9-1.4 6-4.3 7.2-3.2 1.3-6.8 1.2-10.2 1.9-3.4.6-7 2.4-8.1 5.8-1.5 4.6 2.6 9.1 6.5 11.9 7.9 5.7 16.7 10 26 12.7 3.3 1 6.8 1.8 9.6 3.9s4.6 6 3.3 9.2c-1.4 3.2-5.4 4.5-8.8 4.1s-6.6-2-9.9-3c-6.2-1.9-14-.9-17.5 4.6-2.3 3.6-2.2 8.4-.6 12.5 1.6 4 4.4 7.4 7.5 10.4 10.5 10.7 23.6 19 38 22.9 14.3 3.7 27.5 4.1 41.1-2" fill="#f5f5f5"/><path d="m123.9 405.1c-1.7-10.5 0-5.2-4.9-18.4-4.9-13.1-11.4-27.1-18.7-41.5-1.8-3.6-3.7-7.1-5.5-10.6s-3.6-6.9-5.5-10.2c-3.9-6.6-8.1-12.6-12.3-18.1-4.2-5.6-8.4-10.7-12.3-15.5-4-4.8-7.7-9.2-11.3-13-7.2-7.7-13.7-13.3-18.4-16.9-2.3-1.8-4.2-3.2-5.4-4.1-.6-.4-1.1-.8-1.4-1s-.5-.3-.5-.3.1.1.5.4c.3.3.8.6 1.4 1.1 1.2.9 3 2.3 5.3 4.2 4.6 3.7 11 9.3 18.1 17 3.6 3.9 7.3 8.3 11.2 13 3.9 4.8 8.1 9.9 12.2 15.5 4.2 5.6 8.4 11.6 12.2 18.1 1.9 3.3 3.7 6.7 5.5 10.2s3.6 7 5.4 10.6c7.3 14.4 13.8 28.3 18.7 41.4s3.2 7.8 5 18.2" fill="#e0e0e0"/><path d="m89.2 324.5c.1 0 .2-.7.3-1.9s.3-3 .5-5.2c.3-4.4.5-10.6.8-17.4.2-6.8.5-12.9.9-17.3.2-2.2.4-4 .5-5.2s.2-1.9.1-1.9-.2.7-.4 1.9-.5 3-.7 5.2c-.5 4.4-.9 10.6-1.2 17.3-.2 6.7-.4 12.7-.5 17.4-.1 2.1-.1 3.8-.2 5.3-.2 1.1-.2 1.8-.1 1.8z" fill="#e0e0e0"/><path d="m31.7 317.8c0 .1.8.1 2.3.1s3.6.1 6.2.2c5.2.2 12.5.7 20.4 1.7 7.9.9 15.1 2.1 20.2 3.1 2.6.5 4.7.9 6.1 1.2s2.2.4 2.3.4c0-.1-.8-.3-2.2-.7s-3.5-.9-6.1-1.5c-5.1-1.1-12.3-2.4-20.3-3.3s-15.2-1.4-20.5-1.4c-2.6 0-4.8 0-6.2.1-1.4 0-2.2.1-2.2.1z" fill="#e0e0e0"/><path d="m118.3 385.8s.1-.2.3-.7c.2-.6.5-1.3.8-2.1.7-1.8 1.7-4.5 2.8-7.9 2.3-6.7 5.1-16 8.2-26.4 3-10.4 5.8-19.7 7.9-26.4 1.1-3.3 1.9-6 2.6-8 .3-.9.5-1.6.7-2.2.1-.5.2-.8.2-.8s-.1.2-.3.7c-.2.6-.5 1.3-.8 2.1-.7 1.8-1.7 4.5-2.8 7.9-2.3 6.7-5.1 16-8.2 26.4-3 10.4-5.8 19.7-7.9 26.4-1.1 3.3-1.9 6-2.6 8-.3.9-.5 1.6-.7 2.2-.2.5-.2.8-.2.8z" fill="#e0e0e0"/><path d="m41.2 366.8s.3.1.8.3c.6.2 1.3.3 2.2.6 2.1.5 4.9 1.2 8.3 2.1 7 1.7 16.6 4.2 27.2 7s20.2 5.2 27.3 6.8c3.5.8 6.3 1.4 8.3 1.8.9.2 1.7.3 2.3.4.5.1.8.1.8.1s-.3-.1-.8-.3c-.6-.2-1.3-.3-2.2-.6-2.1-.5-4.9-1.2-8.3-2.1-7-1.7-16.6-4.2-27.2-7s-20.2-5.2-27.2-6.8c-3.5-.8-6.3-1.4-8.3-1.8-.9-.2-1.7-.3-2.3-.4s-.9-.2-.9-.1z" fill="#e0e0e0"/><path d="m452.3 282c2.5 3.2 3.2 7.6 2.5 11.6s-2.6 7.7-5 11c-4.6 6.4-12.3 11.1-19.6 14.2-2.9-8.2.7-17.7 2.8-22.4 3.4-7.4 13.9-18.8 19.3-14.4" fill="#f5f5f5"/><path d="m430.5 333.8c1.2-4.4 5.2-7.7 9.7-8.7 4.4-1 9.2.2 13 2.8 1.7 1.2 3.4 2.8 3.6 4.9.2 2-1 3.8-2.7 4.9-1.6 1.1-3.7 1.4-5.6 1.5-6.7.3-13.3-.6-18-5.4" fill="#f5f5f5"/><path d="m414.9 345.7c-.1-.1 1.1-1.6 3.3-4 1.1-1.2 2.6-2.5 4.3-3.7 1.8-1.2 3.7-2.5 5.9-3.6 4.4-2.2 9-3 12.2-2.9 1.6.1 2.9.3 3.8.5.9.3 1.3.4 1.3.5 0 .2-2-.4-5.1-.4s-7.5.9-11.8 3.1c-2.2 1.1-4.1 2.4-5.9 3.5s-3.2 2.3-4.3 3.4c-2.2 2.2-3.6 3.7-3.7 3.6z" fill="#e0e0e0"/><path d="m445 291.4c.1 0-.3.9-1.1 2.4-.7 1.5-1.8 3.7-3.2 6.4-2.7 5.4-6.6 12.8-11.1 20.9s-8.7 15.3-11.9 20.4c-1.6 2.6-2.9 4.6-3.8 6s-1.5 2.2-1.5 2.1c-.1 0 .4-.9 1.2-2.3.9-1.6 2.1-3.7 3.6-6.2 3-5.2 7.2-12.4 11.7-20.5 4.4-8 8.3-15.3 11.3-20.7 1.4-2.5 2.5-4.7 3.4-6.3.9-1.4 1.3-2.2 1.4-2.2z" fill="#e0e0e0"/><path d="m420.4 331.5c2.1-9.3-.7-19.6-7.2-26.6-1.7-1.8-4.1-3.5-6.4-2.6s-3 3.7-3 6.2c0 10.2 6.7 20 16.2 23.6" fill="#f5f5f5"/><path d="m412.1 311.9s.4.3.9 1c.6.7 1.3 1.8 2.1 3.1 1.7 2.7 3.9 6.6 4.8 11.4.5 2.4.5 4.8.2 6.9s-1 3.9-1.6 5.4c-.7 1.4-1.3 2.6-1.9 3.3-.5.7-.8 1.1-.9 1.1-.2-.1 1-1.7 2.1-4.6.5-1.5 1.1-3.2 1.4-5.3.2-2 .2-4.3-.2-6.6-.9-4.7-3-8.6-4.5-11.3s-2.5-4.3-2.4-4.4z" fill="#e0e0e0"/><path d="m456.5 263.8c0-.2.8-.3 1.9-.3 1 0 1.9.1 1.9.3s-.8.3-1.9.3-1.9-.1-1.9-.3z" fill="#e0e0e0"/><path d="m449 263.8c0-.2.8-.3 1.9-.3 1 0 1.9.1 1.9.3s-.8.3-1.9.3-1.9-.1-1.9-.3z" fill="#e0e0e0"/><path d="m441.5 263.8c0-.2.8-.3 1.9-.3 1 0 1.9.1 1.9.3s-.8.3-1.9.3c-1 0-1.9-.1-1.9-.3z" fill="#e0e0e0"/><path d="m434.1 263.8c0-.2.8-.3 1.9-.3 1 0 1.9.1 1.9.3s-.8.3-1.9.3-1.9-.1-1.9-.3z" fill="#e0e0e0"/><path d="m426.6 263.8c0-.2.8-.3 1.9-.3 1 0 1.9.1 1.9.3s-.8.3-1.9.3-1.9-.1-1.9-.3z" fill="#e0e0e0"/><path d="m419.1 263.8c0-.2.8-.3 1.9-.3 1 0 1.9.1 1.9.3s-.8.3-1.9.3c-1 0-1.9-.1-1.9-.3z" fill="#e0e0e0"/><path d="m411.7 263.8c0-.2.8-.3 1.9-.3 1 0 1.9.1 1.9.3s-.8.3-1.9.3-1.9-.1-1.9-.3z" fill="#e0e0e0"/><path d="m404.2 263.8c0-.2.8-.3 1.9-.3 1 0 1.9.1 1.9.3s-.8.3-1.9.3-1.9-.1-1.9-.3z" fill="#e0e0e0"/><path d="m396.7 263.8c0-.2.8-.3 1.9-.3 1 0 1.9.1 1.9.3s-.8.3-1.9.3c-1 0-1.9-.1-1.9-.3z" fill="#e0e0e0"/><path d="m389.2 263.8c0-.2.8-.3 1.9-.3 1 0 1.9.1 1.9.3s-.8.3-1.9.3c-1 0-1.9-.1-1.9-.3z" fill="#e0e0e0"/><path d="m381.8 263.8c0-.2.8-.3 1.9-.3 1 0 1.9.1 1.9.3s-.8.3-1.9.3-1.9-.1-1.9-.3z" fill="#e0e0e0"/><path d="m374.3 263.8c0-.2.8-.3 1.9-.3 1 0 1.9.1 1.9.3s-.8.3-1.9.3-1.9-.1-1.9-.3z" fill="#e0e0e0"/><path d="m369 261.7c.2 0 .3.8.3 1.9v.3l-.3-.3c.9 0 1.6.2 1.6.3 0 .2-.7.3-1.6.3h-.3v-.3c0-.1 0-.2 0-.3 0-1.1.1-1.9.3-1.9z" fill="#e0e0e0"/><path d="m369 254.2c.2 0 .3.8.3 1.9 0 1-.1 1.9-.3 1.9s-.3-.8-.3-1.9.1-1.9.3-1.9z" fill="#e0e0e0"/><path d="m369 246.7c.2 0 .3.8.3 1.9 0 1-.1 1.9-.3 1.9s-.3-.8-.3-1.9c0-1 .1-1.9.3-1.9z" fill="#e0e0e0"/><path d="m369 239.3c.2 0 .3.8.3 1.9 0 1-.1 1.9-.3 1.9s-.3-.8-.3-1.9.1-1.9.3-1.9z" fill="#e0e0e0"/><path d="m369 231.8c.2 0 .3.8.3 1.9 0 1-.1 1.9-.3 1.9s-.3-.8-.3-1.9.1-1.9.3-1.9z" fill="#e0e0e0"/><path d="m369 224.3c.2 0 .3.8.3 1.9 0 1-.1 1.9-.3 1.9s-.3-.8-.3-1.9c0-1 .1-1.9.3-1.9z" fill="#e0e0e0"/><path d="m369 216.9c.2 0 .3.8.3 1.9 0 1-.1 1.9-.3 1.9s-.3-.8-.3-1.9.1-1.9.3-1.9z" fill="#e0e0e0"/><path d="m369 209.4c.2 0 .3.8.3 1.9 0 1-.1 1.9-.3 1.9s-.3-.8-.3-1.9.1-1.9.3-1.9z" fill="#e0e0e0"/><path d="m369 201.9c.2 0 .3.8.3 1.9 0 1-.1 1.9-.3 1.9s-.3-.8-.3-1.9c0-1 .1-1.9.3-1.9z" fill="#e0e0e0"/><path d="m369 194.5c.2 0 .3.8.3 1.9 0 1-.1 1.9-.3 1.9s-.3-.8-.3-1.9.1-1.9.3-1.9z" fill="#e0e0e0"/><path d="m369 187c.2 0 .3.8.3 1.9 0 1-.1 1.9-.3 1.9s-.3-.8-.3-1.9.1-1.9.3-1.9z" fill="#e0e0e0"/><path d="m369 179.5c.2 0 .3.8.3 1.9 0 1-.1 1.9-.3 1.9s-.3-.8-.3-1.9c0-1 .1-1.9.3-1.9z" fill="#e0e0e0"/><path d="m369.5 172.6c0 .1-.2.2-.6.2l.2-.2c.1.3.1.8.1 1.3 0 1-.1 1.9-.3 1.9s-.3-.8-.3-1.9c0-.5 0-1 .1-1.3v-.3h.2c.4.1.6.2.6.3z" fill="#e0e0e0"/><path d="m377 172.6c0 .2-.8.3-1.9.3-1 0-1.9-.1-1.9-.3s.8-.3 1.9-.3 1.9.1 1.9.3z" fill="#e0e0e0"/><path d="m384.5 172.6c0 .2-.8.3-1.9.3-1 0-1.9-.1-1.9-.3s.8-.3 1.9-.3c1 0 1.9.1 1.9.3z" fill="#e0e0e0"/><path d="m392 172.6c0 .2-.8.3-1.9.3-1 0-1.9-.1-1.9-.3s.8-.3 1.9-.3c1 0 1.9.1 1.9.3z" fill="#e0e0e0"/><path d="m399.4 172.6c0 .2-.8.3-1.9.3-1 0-1.9-.1-1.9-.3s.8-.3 1.9-.3 1.9.1 1.9.3z" fill="#e0e0e0"/><path d="m406.9 172.6c0 .2-.8.3-1.9.3-1 0-1.9-.1-1.9-.3s.8-.3 1.9-.3 1.9.1 1.9.3z" fill="#e0e0e0"/><path d="m414.4 172.6c0 .2-.8.3-1.9.3-1 0-1.9-.1-1.9-.3s.8-.3 1.9-.3c1 0 1.9.1 1.9.3z" fill="#e0e0e0"/><path d="m421.8 172.6c0 .2-.8.3-1.9.3-1 0-1.9-.1-1.9-.3s.8-.3 1.9-.3 1.9.1 1.9.3z" fill="#e0e0e0"/><path d="m429.3 172.6c0 .2-.8.3-1.9.3-1 0-1.9-.1-1.9-.3s.8-.3 1.9-.3 1.9.1 1.9.3z" fill="#e0e0e0"/><path d="m436.8 172.6c0 .2-.8.3-1.9.3-1 0-1.9-.1-1.9-.3s.8-.3 1.9-.3c1 0 1.9.1 1.9.3z" fill="#e0e0e0"/><path d="m444.2 172.6c0 .2-.8.3-1.9.3-1 0-1.9-.1-1.9-.3s.8-.3 1.9-.3 1.9.1 1.9.3z" fill="#e0e0e0"/><path d="m451.7 172.6c0 .2-.8.3-1.9.3-1 0-1.9-.1-1.9-.3s.8-.3 1.9-.3 1.9.1 1.9.3z" fill="#e0e0e0"/><path d="m459.2 172.6c0 .2-.8.3-1.9.3-1 0-1.9-.1-1.9-.3s.8-.3 1.9-.3c1 0 1.9.1 1.9.3z" fill="#e0e0e0"/><path d="m460.2 179.1c-.2 0-.3-.8-.3-1.9 0-1 .1-1.9.3-1.9s.3.8.3 1.9c0 1-.1 1.9-.3 1.9z" fill="#e0e0e0"/><path d="m460.2 186.5c-.2 0-.3-.8-.3-1.9 0-1 .1-1.9.3-1.9s.3.8.3 1.9-.1 1.9-.3 1.9z" fill="#e0e0e0"/><path d="m460.2 194c-.2 0-.3-.8-.3-1.9 0-1 .1-1.9.3-1.9s.3.8.3 1.9-.1 1.9-.3 1.9z" fill="#e0e0e0"/><path d="m460.2 201.5c-.2 0-.3-.8-.3-1.9 0-1 .1-1.9.3-1.9s.3.8.3 1.9c0 1-.1 1.9-.3 1.9z" fill="#e0e0e0"/><path d="m460.2 208.9c-.2 0-.3-.8-.3-1.9 0-1 .1-1.9.3-1.9s.3.8.3 1.9-.1 1.9-.3 1.9z" fill="#e0e0e0"/><path d="m460.2 216.4c-.2 0-.3-.8-.3-1.9 0-1 .1-1.9.3-1.9s.3.8.3 1.9-.1 1.9-.3 1.9z" fill="#e0e0e0"/><path d="m460.2 223.9c-.2 0-.3-.8-.3-1.9 0-1 .1-1.9.3-1.9s.3.8.3 1.9c0 1-.1 1.9-.3 1.9z" fill="#e0e0e0"/><path d="m460.2 231.3c-.2 0-.3-.8-.3-1.9 0-1 .1-1.9.3-1.9s.3.8.3 1.9-.1 1.9-.3 1.9z" fill="#e0e0e0"/><path d="m460.2 238.8c-.2 0-.3-.8-.3-1.9 0-1 .1-1.9.3-1.9s.3.8.3 1.9-.1 1.9-.3 1.9z" fill="#e0e0e0"/><path d="m460.2 246.3c-.2 0-.3-.8-.3-1.9 0-1 .1-1.9.3-1.9s.3.8.3 1.9c0 1-.1 1.9-.3 1.9z" fill="#e0e0e0"/><path d="m460.2 253.7c-.2 0-.3-.8-.3-1.9 0-1 .1-1.9.3-1.9s.3.8.3 1.9-.1 1.9-.3 1.9z" fill="#e0e0e0"/><path d="m460.2 261.2c-.2 0-.3-.8-.3-1.9 0-1 .1-1.9.3-1.9s.3.8.3 1.9-.1 1.9-.3 1.9z" fill="#e0e0e0"/><path d="m456.8 259.5h6.8v6.8h-6.8z" fill="#e0e0e0"/><path d="m365.6 260.4h6.8v6.8h-6.8z" fill="#e0e0e0"/><path d="m456.8 168.6h6.8v6.8h-6.8z" fill="#e0e0e0"/><path d="m365.6 169.2h6.8v6.8h-6.8z" fill="#e0e0e0"/><path d="m446.9 144.3c0-.1.6-.2 1.3-.2s1.3.1 1.3.2-.6.2-1.3.2-1.3-.1-1.3-.2z" fill="#263238"/><path d="m441.9 144.3c0-.1.6-.2 1.3-.2s1.3.1 1.3.2-.6.2-1.3.2c-.8 0-1.3-.1-1.3-.2z" fill="#263238"/><path d="m436.8 144.3c0-.1.6-.2 1.3-.2s1.3.1 1.3.2-.6.2-1.3.2-1.3-.1-1.3-.2z" fill="#263238"/><path d="m431.8 144.3c0-.1.6-.2 1.3-.2s1.3.1 1.3.2-.6.2-1.3.2c-.8 0-1.3-.1-1.3-.2z" fill="#263238"/><path d="m426.7 144.3c0-.1.6-.2 1.3-.2s1.3.1 1.3.2-.6.2-1.3.2-1.3-.1-1.3-.2z" fill="#263238"/><path d="m421.7 144.3c0-.1.6-.2 1.3-.2s1.3.1 1.3.2-.6.2-1.3.2c-.8 0-1.3-.1-1.3-.2z" fill="#263238"/><path d="m416.6 144.3c0-.1.6-.2 1.3-.2s1.3.1 1.3.2-.6.2-1.3.2-1.3-.1-1.3-.2z" fill="#263238"/><path d="m411.6 144.3c0-.1.6-.2 1.3-.2s1.3.1 1.3.2-.6.2-1.3.2c-.8 0-1.3-.1-1.3-.2z" fill="#263238"/><path d="m406.5 144.3c0-.1.6-.2 1.3-.2s1.3.1 1.3.2-.6.2-1.3.2-1.3-.1-1.3-.2z" fill="#263238"/><path d="m401.5 144.3c0-.1.6-.2 1.3-.2s1.3.1 1.3.2-.6.2-1.3.2c-.8 0-1.3-.1-1.3-.2z" fill="#263238"/><path d="m396.4 144.3c0-.1.6-.2 1.3-.2s1.3.1 1.3.2-.6.2-1.3.2-1.3-.1-1.3-.2z" fill="#263238"/><path d="m391.4 144.3c0-.1.6-.2 1.3-.2s1.3.1 1.3.2-.6.2-1.3.2c-.8 0-1.3-.1-1.3-.2z" fill="#263238"/><path d="m387.8 142.8c.1 0 .2.6.2 1.3v.2l-.2-.2c.6 0 1.1.1 1.1.2s-.5.2-1.1.2h-.2v-.2c0-.1 0-.1 0-.2-.1-.7 0-1.3.2-1.3z" fill="#263238"/><path d="m387.8 137.8c.1 0 .2.6.2 1.3s-.1 1.3-.2 1.3-.2-.6-.2-1.3c-.1-.7 0-1.3.2-1.3z" fill="#263238"/><path d="m387.8 132.7c.1 0 .2.6.2 1.3s-.1 1.3-.2 1.3-.2-.6-.2-1.3c-.1-.7 0-1.3.2-1.3z" fill="#263238"/><path d="m387.8 127.7c.1 0 .2.6.2 1.3s-.1 1.3-.2 1.3-.2-.6-.2-1.3c-.1-.7 0-1.3.2-1.3z" fill="#263238"/><path d="m387.8 122.6c.1 0 .2.6.2 1.3s-.1 1.3-.2 1.3-.2-.6-.2-1.3c-.1-.7 0-1.3.2-1.3z" fill="#263238"/><path d="m387.8 117.6c.1 0 .2.6.2 1.3s-.1 1.3-.2 1.3-.2-.6-.2-1.3c-.1-.8 0-1.3.2-1.3z" fill="#263238"/><path d="m387.8 112.5c.1 0 .2.6.2 1.3s-.1 1.3-.2 1.3-.2-.6-.2-1.3c-.1-.7 0-1.3.2-1.3z" fill="#263238"/><path d="m387.8 107.5c.1 0 .2.6.2 1.3s-.1 1.3-.2 1.3-.2-.6-.2-1.3c-.1-.8 0-1.3.2-1.3z" fill="#263238"/><path d="m387.8 102.4c.1 0 .2.6.2 1.3s-.1 1.3-.2 1.3-.2-.6-.2-1.3c-.1-.7 0-1.3.2-1.3z" fill="#263238"/><path d="m387.8 97.4c.1 0 .2.6.2 1.3s-.1 1.3-.2 1.3-.2-.6-.2-1.3c-.1-.8 0-1.3.2-1.3z" fill="#263238"/><path d="m387.8 92.3c.1 0 .2.6.2 1.3s-.1 1.3-.2 1.3-.2-.6-.2-1.3c-.1-.7 0-1.3.2-1.3z" fill="#263238"/><path d="m387.8 87.3c.1 0 .2.6.2 1.3s-.1 1.3-.2 1.3-.2-.6-.2-1.3c-.1-.8 0-1.3.2-1.3z" fill="#263238"/><path d="m388.1 82.6c0 .1-.1.1-.4.2l.2-.2c0 .2.1.5.1.9 0 .7-.1 1.3-.2 1.3s-.2-.6-.2-1.3c0-.3 0-.7.1-.9v-.2h.1c.2.1.3.1.3.2z" fill="#263238"/><path d="m393.2 82.6c0 .1-.6.2-1.3.2s-1.3-.1-1.3-.2.6-.2 1.3-.2 1.3.1 1.3.2z" fill="#263238"/><path d="m398.2 82.6c0 .1-.6.2-1.3.2s-1.3-.1-1.3-.2.6-.2 1.3-.2c.8 0 1.3.1 1.3.2z" fill="#263238"/><path d="m403.3 82.6c0 .1-.6.2-1.3.2s-1.3-.1-1.3-.2.6-.2 1.3-.2 1.3.1 1.3.2z" fill="#263238"/><path d="m408.3 82.6c0 .1-.6.2-1.3.2s-1.3-.1-1.3-.2.6-.2 1.3-.2c.8 0 1.3.1 1.3.2z" fill="#263238"/><path d="m413.4 82.6c0 .1-.6.2-1.3.2s-1.3-.1-1.3-.2.6-.2 1.3-.2 1.3.1 1.3.2z" fill="#263238"/><path d="m418.4 82.6c0 .1-.6.2-1.3.2s-1.3-.1-1.3-.2.6-.2 1.3-.2c.8 0 1.3.1 1.3.2z" fill="#263238"/><path d="m423.5 82.6c0 .1-.6.2-1.3.2s-1.3-.1-1.3-.2.6-.2 1.3-.2 1.3.1 1.3.2z" fill="#263238"/><path d="m428.5 82.6c0 .1-.6.2-1.3.2s-1.3-.1-1.3-.2.6-.2 1.3-.2c.8 0 1.3.1 1.3.2z" fill="#263238"/><path d="m433.6 82.6c0 .1-.6.2-1.3.2s-1.3-.1-1.3-.2.6-.2 1.3-.2 1.3.1 1.3.2z" fill="#263238"/><path d="m438.6 82.6c0 .1-.6.2-1.3.2s-1.3-.1-1.3-.2.6-.2 1.3-.2c.8 0 1.3.1 1.3.2z" fill="#263238"/><path d="m443.7 82.6c0 .1-.6.2-1.3.2s-1.3-.1-1.3-.2.6-.2 1.3-.2 1.3.1 1.3.2z" fill="#263238"/><path d="m448.7 82.6c0 .1-.6.2-1.3.2s-1.3-.1-1.3-.2.6-.2 1.3-.2c.8 0 1.3.1 1.3.2z" fill="#263238"/><path d="m449.4 87c-.1 0-.2-.6-.2-1.3s.1-1.3.2-1.3.2.6.2 1.3c.1.7 0 1.3-.2 1.3z" fill="#263238"/><path d="m449.4 92c-.1 0-.2-.6-.2-1.3s.1-1.3.2-1.3.2.6.2 1.3c.1.7 0 1.3-.2 1.3z" fill="#263238"/><path d="m449.4 97.1c-.1 0-.2-.6-.2-1.3s.1-1.3.2-1.3.2.6.2 1.3c.1.7 0 1.3-.2 1.3z" fill="#263238"/><path d="m449.4 102.1c-.1 0-.2-.6-.2-1.3s.1-1.3.2-1.3.2.6.2 1.3c.1.7 0 1.3-.2 1.3z" fill="#263238"/><path d="m449.4 107.2c-.1 0-.2-.6-.2-1.3s.1-1.3.2-1.3.2.6.2 1.3c.1.7 0 1.3-.2 1.3z" fill="#263238"/><path d="m449.4 112.2c-.1 0-.2-.6-.2-1.3s.1-1.3.2-1.3.2.6.2 1.3c.1.8 0 1.3-.2 1.3z" fill="#263238"/><path d="m449.4 117.3c-.1 0-.2-.6-.2-1.3s.1-1.3.2-1.3.2.6.2 1.3c.1.7 0 1.3-.2 1.3z" fill="#263238"/><path d="m449.4 122.3c-.1 0-.2-.6-.2-1.3s.1-1.3.2-1.3.2.6.2 1.3c.1.8 0 1.3-.2 1.3z" fill="#263238"/><path d="m449.4 127.4c-.1 0-.2-.6-.2-1.3s.1-1.3.2-1.3.2.6.2 1.3c.1.7 0 1.3-.2 1.3z" fill="#263238"/><path d="m449.4 132.4c-.1 0-.2-.6-.2-1.3s.1-1.3.2-1.3.2.6.2 1.3c.1.8 0 1.3-.2 1.3z" fill="#263238"/><path d="m449.4 137.5c-.1 0-.2-.6-.2-1.3s.1-1.3.2-1.3.2.6.2 1.3c.1.7 0 1.3-.2 1.3z" fill="#263238"/><path d="m449.4 142.5c-.1 0-.2-.6-.2-1.3s.1-1.3.2-1.3.2.6.2 1.3c.1.8 0 1.3-.2 1.3z" fill="#263238"/><path d="m447.2 141.4h4.6v4.6h-4.6z" fill="#263238"/><path d="m385.5 142h4.6v4.6h-4.6z" fill="#263238"/><path d="m447.2 79.9h4.6v4.6h-4.6z" fill="#263238"/><path d="m385.5 80.3h4.6v4.6h-4.6z" fill="#263238"/><path d="m102.1 233.4c0-.1.6-.2 1.3-.2s1.3.1 1.3.2-.6.2-1.3.2-1.3-.1-1.3-.2z" fill="#263238"/><path d="m97.1 233.4c0-.1.6-.2 1.3-.2s1.3.1 1.3.2-.6.2-1.3.2c-.8 0-1.3-.1-1.3-.2z" fill="#263238"/><path d="m92 233.4c0-.1.6-.2 1.3-.2s1.3.1 1.3.2-.6.2-1.3.2-1.3-.1-1.3-.2z" fill="#263238"/><path d="m87 233.4c0-.1.6-.2 1.3-.2s1.3.1 1.3.2-.6.2-1.3.2c-.8 0-1.3-.1-1.3-.2z" fill="#263238"/><path d="m81.9 233.4c0-.1.6-.2 1.3-.2s1.3.1 1.3.2-.6.2-1.3.2-1.3-.1-1.3-.2z" fill="#263238"/><path d="m76.9 233.4c0-.1.6-.2 1.3-.2s1.3.1 1.3.2-.6.2-1.3.2c-.8 0-1.3-.1-1.3-.2z" fill="#263238"/><path d="m71.8 233.4c0-.1.6-.2 1.3-.2s1.3.1 1.3.2-.6.2-1.3.2-1.3-.1-1.3-.2z" fill="#263238"/><path d="m66.8 233.4c0-.1.6-.2 1.3-.2s1.3.1 1.3.2-.6.2-1.3.2c-.8 0-1.3-.1-1.3-.2z" fill="#263238"/><path d="m61.7 233.4c0-.1.6-.2 1.3-.2s1.3.1 1.3.2-.6.2-1.3.2-1.3-.1-1.3-.2z" fill="#263238"/><path d="m56.7 233.4c0-.1.6-.2 1.3-.2s1.3.1 1.3.2-.6.2-1.3.2c-.8 0-1.3-.1-1.3-.2z" fill="#263238"/><path d="m51.6 233.4c0-.1.6-.2 1.3-.2s1.3.1 1.3.2-.6.2-1.3.2-1.3-.1-1.3-.2z" fill="#263238"/><path d="m46.6 233.4c0-.1.6-.2 1.3-.2s1.3.1 1.3.2-.6.2-1.3.2c-.8 0-1.3-.1-1.3-.2z" fill="#263238"/><path d="m43 232c.1 0 .2.6.2 1.3v.2l-.2-.2c.6 0 1.1.1 1.1.2s-.5.2-1.1.2h-.2v-.2c0-.1 0-.1 0-.2-.1-.8 0-1.3.2-1.3z" fill="#263238"/><path d="m43 226.9c.1 0 .2.6.2 1.3s-.1 1.3-.2 1.3-.2-.6-.2-1.3c-.1-.7 0-1.3.2-1.3z" fill="#263238"/><path d="m43 221.8c.1 0 .2.6.2 1.3s-.1 1.3-.2 1.3-.2-.6-.2-1.3c-.1-.7 0-1.3.2-1.3z" fill="#263238"/><path d="m43 216.8c.1 0 .2.6.2 1.3s-.1 1.3-.2 1.3-.2-.6-.2-1.3c-.1-.7 0-1.3.2-1.3z" fill="#263238"/><path d="m43 211.7c.1 0 .2.6.2 1.3s-.1 1.3-.2 1.3-.2-.6-.2-1.3c-.1-.7 0-1.3.2-1.3z" fill="#263238"/><path d="m43 206.7c.1 0 .2.6.2 1.3s-.1 1.3-.2 1.3-.2-.6-.2-1.3c-.1-.7 0-1.3.2-1.3z" fill="#263238"/><path d="m43 201.6c.1 0 .2.6.2 1.3s-.1 1.3-.2 1.3-.2-.6-.2-1.3c-.1-.7 0-1.3.2-1.3z" fill="#263238"/><path d="m43 196.6c.1 0 .2.6.2 1.3s-.1 1.3-.2 1.3-.2-.6-.2-1.3c-.1-.7 0-1.3.2-1.3z" fill="#263238"/><path d="m43 191.5c.1 0 .2.6.2 1.3s-.1 1.3-.2 1.3-.2-.6-.2-1.3c-.1-.7 0-1.3.2-1.3z" fill="#263238"/><path d="m43 186.5c.1 0 .2.6.2 1.3s-.1 1.3-.2 1.3-.2-.6-.2-1.3c-.1-.7 0-1.3.2-1.3z" fill="#263238"/><path d="m43 181.4c.1 0 .2.6.2 1.3s-.1 1.3-.2 1.3-.2-.6-.2-1.3c-.1-.7 0-1.3.2-1.3z" fill="#263238"/><path d="m43 176.4c.1 0 .2.6.2 1.3s-.1 1.3-.2 1.3-.2-.6-.2-1.3c-.1-.7 0-1.3.2-1.3z" fill="#263238"/><path d="m43.3 171.7c0 .1-.1.1-.4.2l.2-.2c0 .2.1.5.1.9 0 .7-.1 1.3-.2 1.3s-.2-.6-.2-1.3c0-.3 0-.7.1-.9v-.2h.1c.2.1.3.2.3.2z" fill="#263238"/><path d="m48.4 171.7c0 .1-.6.2-1.3.2s-1.3-.1-1.3-.2.6-.2 1.3-.2 1.3.1 1.3.2z" fill="#263238"/><path d="m53.4 171.7c0 .1-.6.2-1.3.2s-1.3-.1-1.3-.2.6-.2 1.3-.2c.8 0 1.3.1 1.3.2z" fill="#263238"/><path d="m58.5 171.7c0 .1-.6.2-1.3.2s-1.3-.1-1.3-.2.6-.2 1.3-.2 1.3.1 1.3.2z" fill="#263238"/><path d="m63.5 171.7c0 .1-.6.2-1.3.2s-1.3-.1-1.3-.2.6-.2 1.3-.2c.8 0 1.3.1 1.3.2z" fill="#263238"/><path d="m68.6 171.7c0 .1-.6.2-1.3.2s-1.3-.1-1.3-.2.6-.2 1.3-.2 1.3.1 1.3.2z" fill="#263238"/><path d="m73.6 171.7c0 .1-.6.2-1.3.2s-1.3-.1-1.3-.2.6-.2 1.3-.2c.8 0 1.3.1 1.3.2z" fill="#263238"/><path d="m78.7 171.7c0 .1-.6.2-1.3.2s-1.3-.1-1.3-.2.6-.2 1.3-.2 1.3.1 1.3.2z" fill="#263238"/><path d="m83.7 171.7c0 .1-.6.2-1.3.2s-1.3-.1-1.3-.2.6-.2 1.3-.2c.8 0 1.3.1 1.3.2z" fill="#263238"/><path d="m88.8 171.7c0 .1-.6.2-1.3.2s-1.3-.1-1.3-.2.6-.2 1.3-.2 1.3.1 1.3.2z" fill="#263238"/><path d="m93.8 171.7c0 .1-.6.2-1.3.2s-1.3-.1-1.3-.2.6-.2 1.3-.2c.8 0 1.3.1 1.3.2z" fill="#263238"/><path d="m98.9 171.7c0 .1-.6.2-1.3.2s-1.3-.1-1.3-.2.6-.2 1.3-.2 1.3.1 1.3.2z" fill="#263238"/><path d="m103.9 171.7c0 .1-.6.2-1.3.2s-1.3-.1-1.3-.2.6-.2 1.3-.2c.8 0 1.3.1 1.3.2z" fill="#263238"/><path d="m104.6 176.1c-.1 0-.2-.6-.2-1.3s.1-1.3.2-1.3.2.6.2 1.3c.1.7 0 1.3-.2 1.3z" fill="#263238"/><path d="m104.6 181.1c-.1 0-.2-.6-.2-1.3s.1-1.3.2-1.3.2.6.2 1.3c.1.8 0 1.3-.2 1.3z" fill="#263238"/><path d="m104.6 186.2c-.1 0-.2-.6-.2-1.3s.1-1.3.2-1.3.2.6.2 1.3c.1.7 0 1.3-.2 1.3z" fill="#263238"/><path d="m104.6 191.2c-.1 0-.2-.6-.2-1.3s.1-1.3.2-1.3.2.6.2 1.3c.1.8 0 1.3-.2 1.3z" fill="#263238"/><path d="m104.6 196.3c-.1 0-.2-.6-.2-1.3s.1-1.3.2-1.3.2.6.2 1.3c.1.7 0 1.3-.2 1.3z" fill="#263238"/><path d="m104.6 201.3c-.1 0-.2-.6-.2-1.3s.1-1.3.2-1.3.2.6.2 1.3c.1.8 0 1.3-.2 1.3z" fill="#263238"/><path d="m104.6 206.4c-.1 0-.2-.6-.2-1.3s.1-1.3.2-1.3.2.6.2 1.3c.1.7 0 1.3-.2 1.3z" fill="#263238"/><path d="m104.6 211.4c-.1 0-.2-.6-.2-1.3s.1-1.3.2-1.3.2.6.2 1.3c.1.8 0 1.3-.2 1.3z" fill="#263238"/><path d="m104.6 216.5c-.1 0-.2-.6-.2-1.3s.1-1.3.2-1.3.2.6.2 1.3c.1.7 0 1.3-.2 1.3z" fill="#263238"/><path d="m104.6 221.5c-.1 0-.2-.6-.2-1.3s.1-1.3.2-1.3.2.6.2 1.3c.1.8 0 1.3-.2 1.3z" fill="#263238"/><path d="m104.6 226.6c-.1 0-.2-.6-.2-1.3s.1-1.3.2-1.3.2.6.2 1.3c.1.7 0 1.3-.2 1.3z" fill="#263238"/><path d="m104.6 231.6c-.1 0-.2-.6-.2-1.3s.1-1.3.2-1.3.2.6.2 1.3c.1.8 0 1.3-.2 1.3z" fill="#263238"/><path d="m102.3 230.5h4.6v4.6h-4.6z" fill="#263238"/><path d="m40.7 231.1h4.6v4.6h-4.6z" fill="#263238"/><path d="m102.3 169h4.6v4.6h-4.6z" fill="#263238"/><path d="m40.7 169.4h4.6v4.6h-4.6z" fill="#263238"/><path d="m125.3 190.5h275.6v257.4h-275.6z" fill="#fff"/><path d="m125.3 190.2h275.6v17.7h-275.6z" fill="#455a64"/><path d="m138.1 200.5c0 1.5-1.2 2.7-2.6 2.7s-2.6-1.2-2.6-2.7 1.2-2.7 2.6-2.7 2.6 1.2 2.6 2.7z" fill="#263238"/><path d="m147.4 200.5c0 1.5-1.2 2.7-2.6 2.7s-2.6-1.2-2.6-2.7 1.2-2.7 2.6-2.7 2.6 1.2 2.6 2.7z" fill="#263238"/><path d="m155.9 198.6c1 1.1 1 2.8 0 3.8s-2.6 1.1-3.6 0-1-2.8 0-3.8c1-1.1 2.6-1.1 3.6 0z" fill="#263238"/><path d="m400.9 447.7c0-1.4-.1-102.7-.2-257.4l.2.2c-79.6 0-174.3 0-275.6 0l.2-.2v257.4l-.2-.2c164.9.1 274.2.2 275.6.2-1.4 0-110.7.1-275.6.2h-.2v-.2c0-75.3 0-163.5 0-257.4v-.3h.2 275.6.2v.2c-.1 154.7-.2 256.1-.2 257.5z" fill="#263238"/><path d="m242.6 221.3h13.8v13.8h-13.8z" fill="#0cc4b4"/><path d="m260.2 221.3h13.8v13.8h-13.8z" fill="#0cc4b4"/><path d="m277.7 221.3h13.8v13.8h-13.8z" fill="#0cc4b4"/><path d="m277.7 221.3h13.8v13.8h-13.8z" fill="#fff" opacity=".4"/><path d="m242.6 221.3h13.8v13.8h-13.8z" opacity=".2"/><path d="m328.2 316.2v1.2c0 .8 0 2-.1 3.5-.3 3.1-.8 7.6-2.4 13.1-.5 1.4-.9 2.9-1.5 4.3-.3.7-.6 1.5-.9 2.3s-.7 1.5-1.1 2.3c-.7 1.6-1.7 3.2-2.6 4.8-.5.8-1 1.6-1.6 2.4-.5.8-1.1 1.7-1.7 2.4-2.4 3.3-5.4 6.5-8.8 9.5-3.5 3-7.4 5.8-11.9 8.1l.1-.2c-.1 5.1-.3 10.6-.4 16.2v.2h-.2c-16.2 0-34.1 0-53.1 0h-.3v-.3c0-4.9 0-10 0-15.3l.1.2c-1.8-.9-3.8-1.9-5.6-3-9.3-5.7-16.8-13.7-21.8-22.7-4.9-9-7.4-19-7.5-28.4-.2-9.5 2-18.4 5.4-26 3.5-7.7 8.3-14 13.5-18.9 2.6-2.5 5.3-4.6 7.9-6.4 2.7-1.8 5.3-3.2 7.9-4.5 5.1-2.4 9.9-3.8 13.8-4.6s7-1 9.1-1.1h2.4.8s-.3 0-.8 0c-.6 0-1.3.1-2.4.1-2.1.2-5.2.4-9.1 1.2s-8.6 2.2-13.7 4.6c-2.5 1.2-5.2 2.7-7.8 4.5s-5.3 3.9-7.9 6.4c-5.1 4.9-9.9 11.2-13.4 18.8-3.4 7.6-5.6 16.5-5.3 25.9.1 9.4 2.5 19.2 7.4 28.2 4.9 8.9 12.4 16.9 21.6 22.5 1.8 1.2 3.8 2.1 5.5 3l.1.1v.2 15.3l-.3-.3h53.1l-.2.2c.2-5.6.3-11.1.5-16.2v-.1l.1-.1c4.5-2.3 8.4-5.1 11.9-8 3.4-3 6.4-6.1 8.8-9.4.6-.8 1.2-1.6 1.7-2.4s1.1-1.6 1.6-2.4c.9-1.6 1.9-3.2 2.6-4.8.4-.8.8-1.5 1.1-2.3s.6-1.5.9-2.3c.7-1.5 1-2.9 1.5-4.3 1.7-5.5 2.2-10 2.6-13.1.1-1.5.1-2.7.2-3.5.2-.5.2-.9.2-.9z" fill="#0cc4b4"/><path d="m275.7 386.1s0-.3.1-.7c.1-.5.1-1.2.2-2.2.2-1.9.6-4.8 1.1-8.4s1.3-8.1 2.4-13.2c1.2-5.1 2.8-10.9 5.5-16.9 1.4-3 2.9-6.1 5-9.1 1.1-1.5 2.4-2.9 4.1-3.7 1.8-.8 4-.8 5.8.2.9.5 1.6 1.4 1.9 2.4s.2 2.2-.3 3.1c-.9 1.9-2.7 3.3-4.7 4-4 1.4-8.6 1-12.6-.9s-7.2-5.7-8.6-10.1c-.7-2.2-1-4.6-.4-7 .6-2.3 2.9-4.5 5.5-4.2 1.3.1 2.5 1 3.1 2.1s.8 2.5.5 3.7c-.6 2.5-2.4 4.4-4.3 6-3.8 3.2-9 4.9-14.1 4.1s-9.6-4.2-11.7-8.7c-1.1-2.2-1.4-5-.4-7.3.5-1.2 1.4-2.3 2.7-2.7 1.2-.5 2.6-.3 3.7.3s2 1.6 2.6 2.7.8 2.3.9 3.5c.2 2.4-.2 4.7-.9 6.9-1.5 4.4-4.6 8.1-8.5 10.2s-8.5 2.6-12.5 1.7c-2-.4-4.1-1.3-5.5-2.9-1.3-1.6-1.7-4.1-.3-5.8.7-.8 1.7-1.3 2.7-1.3 1-.1 2 .1 2.9.6 1.8.9 2.9 2.6 3.7 4.2 1.5 3.3 2.7 6.5 4 9.5 4.8 12.2 8.3 22.3 10.6 29.2 1.2 3.5 2 6.2 2.6 8.1.3.9.5 1.6.6 2.1s.2.7.2.7-.1-.2-.3-.7-.4-1.2-.7-2.1c-.6-1.9-1.5-4.6-2.7-8-2.4-6.9-5.9-17-10.8-29.1-1.2-3-2.5-6.3-4-9.5-.8-1.6-1.9-3.1-3.5-3.9-1.5-.8-3.7-.8-4.9.6-1.1 1.4-.8 3.6.4 5 1.2 1.5 3.2 2.2 5.1 2.7 3.9.9 8.3.3 12.1-1.7s6.8-5.6 8.2-9.8c.7-2.1 1-4.4.9-6.6-.2-2.2-1.1-4.5-3.1-5.6-1-.5-2.1-.7-3.1-.3s-1.8 1.2-2.2 2.3c-.8 2.1-.6 4.6.4 6.7 2 4.3 6.3 7.5 11.2 8.3s9.9-.9 13.5-3.9c1.8-1.5 3.5-3.4 4-5.6.2-1.1.1-2.3-.4-3.2-.5-1-1.4-1.7-2.5-1.8s-2.2.3-3 1c-.9.7-1.4 1.7-1.7 2.7-.6 2.1-.3 4.5.3 6.6 1.3 4.3 4.4 7.8 8.2 9.7s8.3 2.2 12.1.9c1.8-.7 3.5-2 4.3-3.7.9-1.7.2-3.8-1.4-4.7s-3.6-.9-5.2-.2c-1.6.8-2.9 2.1-3.9 3.5-2 2.9-3.6 6-5 8.9-2.7 6-4.4 11.7-5.6 16.7-1.2 5.1-1.9 9.5-2.5 13.1-.5 3.6-1 6.4-1.2 8.4-.1.9-.2 1.7-.3 2.2-.2.6-.3.9-.3.9z" fill="#0cc4b4"/><path d="m292.3 396.1s.4 0 1.1-.4c.3-.2.6-.6.8-1.1.1-.5 0-1.2 0-1.9 0-.4 0-.7 0-1.2 0-.4 0-.8-.2-1.2s-.5-.7-.9-.8c-.4-.2-.9-.1-1.4-.1-2.1 0-4.4 0-7 0-10.5 0-24.8 0-40.7.1-.9 0-1.7.7-1.7 1.6v2.9c-.1.9.6 1.7 1.4 1.8.9.1 1.9 0 2.8 0h10.8c6.9 0 13.1 0 18.3.1 5.2 0 9.4.1 12.3.1h3.4.9c0 .1.1.1.1.1s-.1 0-.3 0-.5 0-.9 0c-.8 0-1.9 0-3.4 0-3 0-7.2 0-12.3.1-5.2 0-11.4 0-18.3.1-3.4 0-7.1 0-10.8 0-1 0-1.8 0-2.9 0-1.1-.1-1.9-1.2-1.9-2.3 0-1 0-2 0-2.9.1-1.1 1.1-2.1 2.2-2.1 15.9 0 30.3.1 40.7.1h7c.5 0 1-.1 1.5.2.5.2.8.6 1.1 1 .2.4.2.9.2 1.3v1.2c0 .7 0 1.4-.1 2-.2.6-.5.9-.8 1.2-.3.2-.6.3-.8.3-.1-.1-.2-.2-.2-.2z" fill="#0cc4b4"/><path d="m290.8 399.1s.3-.1 1 .1c.6.2 1.5.6 2.2 1.7.3.5.5 1.2.4 2s-.4 1.6-1.1 2.2c-.6.6-1.6 1-2.7 1-1 0-2.1 0-3.2 0l.1-.1c-1.3 2.6-2.8 5.6-4.5 8.9-.4.8-.8 1.7-1.3 2.5-.2.4-.4.9-.7 1.3-.2.5-.6.9-1 1.2-.8.7-1.8 1.2-2.9 1.2-1 0-2.1 0-3.2 0-4.3 0-8.9 0-13.8 0-1.3-.1-2.5-.8-3.2-1.9-.4-.5-.6-1.1-.9-1.6s-.6-1.1-.9-1.7c-1.2-2.2-2.4-4.5-3.6-6.8-.6-1.1-1.1-2.2-1.7-3.2l.2.1c-1.1 0-2.1 0-3.2 0-.5 0-1.1 0-1.6 0s-1.1-.1-1.6-.3c-1-.4-1.8-1.3-2.1-2.4s-.1-2.2.5-3.1 1.6-1.5 2.7-1.6h2.9 5.7c7.3 0 13.9 0 19.5.1 5.5 0 10 .1 13.1.1h3.5.9c.4.3.5.3.5.3s-.1 0-.3 0-.5 0-.9 0c-.8 0-2 0-3.5 0-3.1 0-7.6 0-13.1.1-5.5 0-12.1 0-19.5.1-1.8 0-3.7 0-5.7 0-1 0-2 0-2.9 0-.9.1-1.8.6-2.3 1.3-.5.8-.7 1.8-.4 2.7s1 1.7 1.8 2.1c.5.2.9.2 1.4.2h1.6 3.2.2l.1.1c.5 1 1.1 2.1 1.7 3.2 1.2 2.3 2.4 4.5 3.6 6.8.3.6.6 1.1.9 1.7.3.5.6 1.1.9 1.6.7.9 1.8 1.6 2.9 1.7 4.8.1 9.4 0 13.7 0h3.2c1 0 1.9-.4 2.7-1.1.7-.6 1.1-1.5 1.5-2.4s.9-1.7 1.3-2.5c1.7-3.3 3.2-6.2 4.6-8.8v-.1h.1c2.2-.1 4.4.5 5.7-.9.6-.6 1-1.3 1-2 .1-.7-.1-1.4-.3-1.9-.6-1.1-1.4-1.5-2-1.7-.9-.2-1.2-.1-1.2-.2z" fill="#0cc4b4"/><path d="m293.8 369.6h2.8v2.8h-2.8z" fill="#0cc4b4"/><path d="m293.5 384.5h2.8v2.8h-2.8z" fill="#0cc4b4"/><path d="m240.4 384.5h2.8v2.8h-2.8z" fill="#0cc4b4"/><path d="m240.4 369.6h2.8v2.8h-2.8z" fill="#0cc4b4"/><path d="m266.2 254.2h2.8v2.8h-2.8z" fill="#0cc4b4"/><path d="m326.8 314.8h2.8v2.8h-2.8z" fill="#0cc4b4"/><path d="m290.4 255.2c0 .1-10.6.3-23.6.3-13.1 0-23.6-.1-23.6-.3s10.6-.3 23.6-.3c13 .1 23.6.2 23.6.3z" fill="#0cc4b4"/><path d="m290.9 255.2c0 .5-.4.8-.8.8-.5 0-.8-.4-.8-.8s.4-.8.8-.8c.5 0 .8.4.8.8z" fill="#0cc4b4"/><circle cx="243.1" cy="255.2" fill="#0cc4b4" r=".8"/><path d="m330.1 283.4c-.1.1-13.9-6.1-30.9-13.8-17-7.8-30.7-14.2-30.7-14.3.1-.1 13.9 6.1 30.9 13.8s30.8 14.2 30.7 14.3z" fill="#0cc4b4"/><path d="m210 156.1c0 .1-1.5-.4-3.9-.7-1.2-.2-2.7-.3-4.3-.2s-3.4.2-5.2.6-3.5 1-5 1.6-2.8 1.3-3.8 2c-2.1 1.3-3.2 2.3-3.3 2.3 0 0 .2-.3.8-.8.3-.2.6-.5 1-.8s.8-.7 1.4-1c1-.7 2.3-1.4 3.8-2.1 1.5-.6 3.2-1.2 5.1-1.6s3.7-.6 5.3-.6 3.1.1 4.4.3c.6.1 1.2.2 1.6.3.5.1.9.2 1.2.3.5.2.9.3.9.4z" fill="#fafafa"/><path d="m336.7 129.1-27.9-9.3c-19.3-6.9-30.1-5.1-48.6 3.8-1.2.6-3.3 1.5-5.2 2.3l-32.6 14.4-23.3 10.2c-15.7 6.8-23.9 22.4-24.7 39.6l76.7.1 101.1-.1 17.6-31c-4.2-21.6-26-26.7-33.1-30z" fill="#0cc4b4"/><path d="m357.2 139.2 63.6 58.4c11.2 10.3 10.8 28.1-.9 37.9l-33.2 27.6-23.4-13.2 27.4-35.4-38.4-24.3z" fill="#0cc4b4"/><path d="m273.7 189.7s0-.1 0-.3 0-.5-.1-.8c0-.8-.1-1.8-.2-3.1-.1-2.7-.4-6.7-.6-11.5l.1.2c-8.7-1.9-20.3-5-32.9-9.3-6.5-2.2-12.6-4.7-18.3-6.4-2.9-.8-5.6-1.4-8.2-1.7s-5.1-.2-7.3.2c-4.4.7-7.7 2.5-9.7 4-1 .8-1.7 1.5-2.1 2-.2.2-.4.4-.5.6-.1.1-.2.2-.2.2s.7-1.2 2.7-2.9c2-1.6 5.3-3.4 9.8-4.2 2.2-.4 4.7-.5 7.4-.3s5.5.8 8.3 1.6c5.8 1.7 11.8 4.2 18.3 6.4 12.5 4.3 24.2 7.4 32.8 9.4h.1v.1c.2 4.8.3 8.7.4 11.5 0 1.3.1 2.4.1 3.1v.8c.2.3.2.4.1.4z" fill="#263238"/><path d="m260.3 170.8c-.1 0-.1-4.9.1-10.9s.5-10.8.6-10.8.1 4.9-.1 10.9-.5 10.8-.6 10.8z" fill="#263238"/><path d="m352 190.5s0-.4 0-1.2c0-.9.1-2 .1-3.3.1-2.8.2-6.7.2-11s.1-8.2.3-11c.1-1.4.1-2.5.2-3.3s.1-1.2.2-1.2v1.2 3.3c0 2.9-.1 6.7-.1 11s-.2 8.2-.3 11c-.1 1.4-.2 2.5-.3 3.3-.2.8-.3 1.2-.3 1.2z" fill="#263238"/><path d="m305.4 140.9c.1.1-.9.6-2.1 1.4-1.1.7-1.9 1.5-2.1 1.4-.1-.1.6-1 1.8-1.8s2.3-1.1 2.4-1z" fill="#263238"/><path d="m308.4 150c-.1 0-.1-1.4.6-2.8.7-1.5 1.8-2.3 1.9-2.2s-.7 1-1.4 2.4-.9 2.6-1.1 2.6z" fill="#263238"/><path d="m318.6 151.6c-.1 0-.4-1.1-.3-2.5s.4-2.5.6-2.5c.1 0 0 1.1 0 2.5-.1 1.3-.1 2.4-.3 2.5z" fill="#263238"/><path d="m329.4 150c-.2 0-.3-1.3-.8-2.8s-1-2.7-.9-2.8.9 1 1.4 2.6.5 3 .3 3z" fill="#263238"/><path d="m336.4 142.5c-.1.1-.6-.8-1.3-1.7s-1.4-1.6-1.3-1.8c.1-.1 1 .4 1.7 1.4.7 1.1 1 2.1.9 2.1z" fill="#263238"/><path d="m340.9 136.5c-.1.1-.9-1-2.2-1.9s-2.6-1.2-2.6-1.4c0-.1 1.4 0 2.8 1 1.5.9 2.2 2.2 2 2.3z" fill="#263238"/><path d="m301.6 134c0 .2-1 .3-2 .9-1.1.5-1.8 1.2-1.9 1.1s.5-1 1.7-1.6c1.1-.5 2.2-.5 2.2-.4z" fill="#263238"/><path d="m300.5 127.8c-.1.1-.9-.3-1.9-.4-1-.2-1.9-.1-1.9-.2s.9-.5 2-.3c1.1.1 1.8.8 1.8.9z" fill="#263238"/><path d="m273.5 185.6c0 .1-1.6.3-3.6.3s-3.6-.1-3.6-.3c0-.1 1.6-.3 3.7-.3 1.8.1 3.5.2 3.5.3z" fill="#263238"/><path d="m273.2 180.6c0 .1-1.5.3-3.5.4-1.9.1-3.5 0-3.5-.1s1.5-.3 3.5-.4 3.5 0 3.5.1z" fill="#263238"/><path d="m273 176.4c0 .1-1.6.2-3.6.1s-3.5-.2-3.5-.4c0-.1 1.6-.2 3.6-.1 1.9 0 3.5.2 3.5.4z" fill="#263238"/><path d="m408.1 218c-.1.1-.8-.7-2.2-1.7-.7-.5-1.6-1-2.6-1.5-1-.4-2.2-.8-3.5-1.1s-2.5-.4-3.6-.4-2.1.1-3 .3c-1.7.3-2.7.7-2.7.7s.2-.2.7-.4c.4-.2 1.1-.4 1.9-.7.8-.2 1.9-.4 3-.4 1.2 0 2.4.1 3.7.3 1.3.3 2.5.7 3.6 1.2 1 .5 1.9 1 2.6 1.6.7.5 1.2 1 1.5 1.4.5.5.7.7.6.7z" fill="#263238"/><path d="m387 255.8c.1.1-.8 1.3-2 2.8s-2.2 2.7-2.3 2.6.7-1.4 1.9-2.9c1.2-1.6 2.3-2.6 2.4-2.5z" fill="#263238"/><path d="m380.4 250.6c.1.1-.8 1.6-2.2 3.4s-2.7 3-2.8 3c-.1-.1 1-1.5 2.4-3.3 1.3-1.8 2.5-3.2 2.6-3.1z" fill="#263238"/><path d="m374.5 246.4c.1.1-1.2 1.6-2.8 3.3-1.7 1.7-3.1 3.1-3.2 3s1.2-1.6 2.8-3.3c1.7-1.8 3.1-3.1 3.2-3z" fill="#263238"/><path d="m390.2 214.2c4.1-3.4 9.7-4.7 14.9-3.6 1.8.4 3.7 1.2 4.4 3 .4 1 .1 2.4-.9 2.9-1 .4-2.1-.3-3.1-.9-4.3-2.7-10-3.2-14.7-1.3.5-.1 1-.2 1.5-.3" opacity=".3"/><path d="m202 158.3c4.8-4 11.4-5.3 17.6-4.7s12.1 2.8 17.9 5.1c4 1.6 8 3.4 12.1 4.7 3.8 1.2 7.2 3.4 9.8 6.4l.9 1c-15.7-4.9-17.9-5.8-33.6-10.7-4.2-1.3-8.4-2.6-12.7-3.1s-8.9-.2-12.8 1.7" opacity=".2"/><path d="m345.4 132.8s0 .1-.1.2c-.1.2-.1.4-.2.7-.2.6-.5 1.5-.9 2.6-.9 2.2-2.5 5.3-5.3 8.6-2.8 3.2-6.8 6.6-12.2 8.6-5.3 2-11.9 2.6-18.2.6s-11.3-6.4-14.2-11.3c-1.5-2.4-2.3-5.1-2.8-7.5-.4-2.5-.4-4.9-.1-7 .6-4.3 2.2-7.5 3.6-9.4 1.4-2 2.4-2.8 2.4-2.8s0 .1-.1.2-.3.3-.5.5-.5.5-.7.9c-.3.4-.6.8-.9 1.3-1.3 2-2.8 5.1-3.4 9.4-.3 2.1-.3 4.4.2 6.9.5 2.4 1.3 5 2.8 7.4 2.8 4.8 7.8 9.1 13.9 11 6.2 1.9 12.6 1.3 17.8-.6 5.3-1.9 9.3-5.2 12.1-8.4s4.4-6.3 5.4-8.4c.5-1.1.8-1.9 1-2.5.1-.3.2-.5.2-.7.2-.3.2-.4.2-.3z" fill="#fafafa"/><path d="m376.8 157.6s0 .1-.1.4c-.1.2-.2.6-.5 1-.6.7-1.9 1.6-3.7 1.6-.9 0-1.9-.2-3-.5-1-.3-2.1-.8-3.4-1.2-2.4-.7-5.3-1.1-8.5-1s-6.6.7-10.3 1.7c-3.6 1-7.4 2.3-11.5 3.6-4.1 1.2-8.4 2.2-13 2.8-4.6.5-9.4.6-14.3-.1s-9.5-2.3-13.6-4.5c-2-1.1-3.9-2.4-5.6-3.9s-3.2-3.1-4.6-4.7c-2.7-3.3-4.9-6.6-7.1-9.7s-4.3-5.8-6.6-8.1-4.6-4-6.9-5.1c-2.3-1.2-4.4-1.8-6.1-2-1.8-.3-3.2-.2-4.1-.1s-1.4.2-1.4.2.5-.2 1.4-.3 2.3-.2 4.1 0 3.9.8 6.2 2c2.3 1.1 4.7 2.8 7 5.1s4.5 5 6.7 8.1 4.4 6.4 7.2 9.7c2.7 3.2 6 6.2 10.1 8.4 4 2.2 8.6 3.7 13.4 4.5 4.8.7 9.6.7 14.2.1 4.6-.5 8.9-1.6 12.9-2.8 4.1-1.2 7.9-2.5 11.5-3.5s7.1-1.6 10.4-1.7c3.2-.1 6.2.3 8.6 1.1 1.2.4 2.3.9 3.3 1.2s2 .6 2.9.6c1.8 0 3.1-.8 3.6-1.5.8-.8.8-1.4.8-1.4z" fill="#fafafa"/><path d="m259.9 162.1s-.2 0-.5 0-.7 0-1.3-.1c-1.1-.2-2.7-.7-4.4-1.8s-3.4-2.8-5.1-4.9-3.2-4.5-5.2-6.8-4.3-4-6.6-5.2-4.6-1.9-6.5-2.4c-3.9-.8-6.4-.4-6.4-.5 0 0 .2 0 .4-.1.3 0 .7-.1 1.3-.1 1.1-.1 2.8 0 4.7.3 2 .4 4.3 1 6.7 2.3 2.4 1.2 4.7 3 6.8 5.3 2 2.3 3.6 4.8 5.2 6.8 1.6 2.1 3.3 3.7 4.9 4.9 1.6 1.1 3.1 1.7 4.2 2 1.2.3 1.8.3 1.8.3z" fill="#fafafa"/><path d="m350.8 189.8s-.1-.1-.1-.2c-.1-.2-.2-.4-.3-.7s-.3-.7-.6-1.1c-.2-.4-.5-.9-.9-1.4-1.3-2.1-3.7-4.8-7.4-7.3-1.8-1.2-4-2.3-6.4-3.3-2.4-.9-5.1-1.6-8-2-5.8-.9-12.3-.7-19-.1s-13.2 1.4-19.1 1.3c-5.9 0-11.2-.7-15.5-2.1s-7.4-3.2-9.4-4.7-2.9-2.6-2.9-2.6.1 0 .2.2c.2.1.3.3.6.5.2.2.6.5.9.8.4.3.8.6 1.3 1 2 1.4 5.2 3.2 9.4 4.5s9.5 2.1 15.3 2c5.9 0 12.3-.8 19-1.4s13.3-.8 19.1.2c2.9.4 5.6 1.2 8.1 2.1s4.6 2.1 6.5 3.4c3.7 2.5 6.1 5.3 7.4 7.4 1.4 2.1 1.8 3.5 1.8 3.5z" fill="#fafafa"/><path d="m391.3 170.9c0 .1-2.3.3-5.9 1.4-.4.1-.9.3-1.4.4-.5.2-1 .4-1.5.6-1 .4-2.1.9-3.2 1.4-2.2 1.1-4.4 2.6-6.6 4.4s-4 3.8-5.6 5.7c-.7 1-1.5 1.9-2 2.8-.3.5-.6.9-.8 1.3s-.5.9-.7 1.3c-1.7 3.3-2.4 5.5-2.5 5.5 0 0 .1-.6.4-1.6.1-.5.4-1.1.7-1.8s.6-1.5 1-2.3c.2-.4.4-.9.7-1.3.2-.5.5-.9.8-1.4.6-1 1.3-1.9 2-2.9 1.5-1.9 3.4-3.9 5.6-5.8 2.2-1.8 4.6-3.3 6.8-4.4 1.1-.5 2.2-1.1 3.2-1.4.5-.2 1-.4 1.5-.5s1-.3 1.4-.4c.9-.3 1.7-.4 2.5-.6.7-.2 1.4-.3 1.9-.3 1.1 0 1.7-.1 1.7-.1z" fill="#fafafa"/><path d="m409.6 188.5s-.5.2-1.4.4-2.2.6-3.8 1c-1.6.5-3.5 1.1-5.6 2-2 .9-4.2 1.9-6.5 3.2-2.2 1.3-4.2 2.6-6 3.9s-3.3 2.6-4.5 3.8c-1.2 1.1-2.2 2.1-2.9 2.8s-1 1-1.1 1c0 0 .3-.4.9-1.2.6-.7 1.5-1.7 2.8-2.9 1.2-1.2 2.7-2.5 4.5-3.9 1.8-1.3 3.8-2.7 6.1-4s4.5-2.3 6.6-3.1 4-1.4 5.6-1.9c1.6-.4 3-.7 3.9-.9s1.4-.2 1.4-.2z" fill="#fafafa"/><path d="m428.5 222.8s-.5.3-1.5.7c-.5.2-1.1.4-1.8.6s-1.5.5-2.4.7c-.5.1-.9.2-1.4.3s-1 .2-1.6.2c-1.1.2-2.3.2-3.5.3-2.5.1-5.2-.1-8-.6s-5.4-1.4-7.7-2.3c-1.1-.5-2.2-1-3.1-1.6-.5-.3-.9-.5-1.4-.8-.4-.3-.8-.5-1.2-.8-.8-.5-1.4-1-2-1.5-.6-.4-1.1-.9-1.4-1.2-.8-.7-1.2-1.1-1.1-1.1.1-.1 1.7 1.6 4.8 3.6.4.2.8.5 1.2.8s.9.5 1.4.8c.9.5 2 1 3.1 1.5 2.3.9 4.8 1.7 7.6 2.3 2.8.5 5.4.7 7.9.6 1.2-.1 2.4-.1 3.4-.3.5-.1 1.1-.1 1.6-.2s1-.2 1.4-.3c3.6-.9 5.7-1.9 5.7-1.7z" fill="#fafafa"/><path d="m393.7 255.8s-.1-.4-.3-1.2c-.2-.9-.4-1.9-.7-3.2-.6-2.7-1.5-6.5-3.3-10.3s-4.5-6.7-6.8-8.2c-2.3-1.6-4-2-4-2.1 0 0 .4.1 1.2.3.7.2 1.8.7 3 1.5 2.4 1.5 5.2 4.4 7.1 8.3s2.7 7.7 3.2 10.4c.3 1.4.4 2.5.5 3.3s.1 1.2.1 1.2z" fill="#fafafa"/><path d="m244.1 190.2s-.1-.3-.1-.9c-.1-.6-.1-1.4 0-2.5.1-2.1.5-5 1.6-8.1 1.1-3 2.6-5.6 3.9-7.3.6-.8 1.2-1.5 1.6-1.9s.7-.6.7-.6c.1.1-.8 1-2 2.7s-2.7 4.2-3.7 7.2c-1.1 3-1.6 5.9-1.8 7.9-.2 2.2-.1 3.5-.2 3.5z" fill="#fafafa"/><path d="m205.9 190s0-.5 0-1.5c0-.5 0-1 .1-1.7s.1-1.4.3-2.3c.1-.8.3-1.7.6-2.7.2-1 .6-2 .9-3 .8-2.1 1.8-4.3 3.1-6.6 1.3-2.2 2.8-4.2 4.3-5.8.8-.8 1.5-1.6 2.2-2.2.7-.7 1.4-1.3 2.1-1.8.6-.5 1.3-1 1.8-1.3.5-.4 1-.7 1.4-.9.8-.5 1.3-.7 1.3-.7.1.1-1.8 1.1-4.3 3.2-.6.5-1.3 1.1-2 1.8s-1.4 1.4-2.2 2.3c-1.4 1.7-2.9 3.6-4.2 5.8s-2.3 4.4-3.1 6.5c-.4 1-.7 2-1 3-.3.9-.5 1.8-.6 2.7-.6 3.1-.6 5.2-.7 5.2z" fill="#fafafa"/><path d="m302 122.7c-.1.1-.9-.5-1.9-1-1.1-.5-2-.8-2-.9s1.1-.1 2.2.5c1.1.4 1.8 1.3 1.7 1.4z" fill="#263238"/><path d="m312.1 67.2c-.5-3.5-1-7-.8-10.5s1.1-7.1 3.3-9.8c2.1-2.8 5.5-4.7 9-4.5 2.2.1 4.3 1.1 6.4.9 2.5-.2 4.6-1.9 6.8-3.1 3.5-1.8 7.5-2.5 11.4-1.9 2 .3 4.1 1 5.6 2.4s2.5 3.5 2.1 5.5c2.5-.2 5.1-.3 7.6.2s4.9 1.7 6.3 3.9c1.4 2.1 1.5 5.2-.2 7.1 2.3-.6 4.9 1 5.6 3.3s-.3 4.9-2.1 6.4-5.4 2.4-7.8 2.1-5.1-.8-7.1-2.1" fill="#263238"/><path d="m315.3 146.4c9.8 1.9 19.3-4.5 21.2-14.3 1.1-5.5 1.9-10.1 1.9-10.1s14.2 1.5 18-12.1 9.8-45.5 9.8-45.5c-14-11-32.8-13.5-49.2-6.7l-2.4 1-13.7 66.1c-2.1 10 4.4 19.7 14.4 21.6z" fill="#b78876"/><path d="m338.5 121.8s-8.8-1.6-16.4-9.8c0 0 1.6 10.9 15.5 13.3z" fill="#aa6550"/><path d="m312.5 73.3c-.2-.2-8.6-5.3-10.8 4.1s7.7 9.7 7.8 9.4c.1-.2 3-13.5 3-13.5z" fill="#b78876"/><path d="m307.4 82.6s-.2.1-.5.1c-.3.1-.8 0-1.2-.3-.9-.6-1.4-2.4-1-4.1.2-.9.5-1.6 1-2.2.4-.6 1-1 1.5-1s.8.4.9.7 0 .5 0 .5.2-.1.3-.5c0-.2-.1-.4-.2-.7-.2-.2-.5-.4-.8-.4-.7-.1-1.5.4-2 1.1s-1 1.5-1.2 2.5c-.4 1.9.2 3.9 1.4 4.6.6.3 1.2.3 1.6.1.2-.1.3-.3.2-.4z" fill="#aa6550"/><path d="m356.2 86.3c-.2 1-1.3 1.7-2.4 1.5s-1.8-1.3-1.5-2.3c.2-1 1.3-1.7 2.4-1.5s1.8 1.3 1.5 2.3z" fill="#263238"/><path d="m358.5 82.9c-.3.2-1.5-1.3-3.6-1.8-2.1-.6-3.9.1-4.1-.2-.1-.1.3-.5 1.1-.8s2-.5 3.3-.1 2.3 1.1 2.8 1.8c.6.5.7 1.1.5 1.1z" fill="#263238"/><path d="m334.8 80.9c-.2 1-1.3 1.7-2.4 1.5s-1.8-1.3-1.5-2.3c.2-1 1.3-1.7 2.4-1.5s1.8 1.2 1.5 2.3z" fill="#263238"/><path d="m337.8 77.9c-.3.2-1.5-1.3-3.6-1.8-2.1-.6-3.9.1-4.1-.2-.1-.1.3-.5 1.1-.8s2-.5 3.3-.1 2.3 1.1 2.8 1.8c.6.5.7 1 .5 1.1z" fill="#263238"/><path d="m341.3 95.4c0-.1 1.4 0 3.6.3.5.1 1.1.1 1.3-.2.2-.4.2-1 .1-1.7-.2-1.4-.3-2.9-.5-4.5-.7-6.4-1-11.6-.7-11.6s1 5.1 1.6 11.5c.1 1.6.3 3.1.4 4.5 0 .7.2 1.4-.3 2.2-.3.4-.7.5-1.1.5s-.7-.1-.9-.1c-2.2-.4-3.5-.8-3.5-.9z" fill="#263238"/><path d="m334.7 95.2c.3.1-.3 2.3 1.3 4.5 1.5 2.1 4 2.5 3.9 2.8 0 .2-.7.3-1.7.1s-2.4-.9-3.3-2.2-1.1-2.8-.9-3.7c.2-1 .6-1.5.7-1.5z" fill="#263238"/><path d="m358.7 79.1c-.5.4-1.8-.5-3.5-1s-3.3-.5-3.5-1.1c-.1-.3.3-.7 1-1 .8-.3 1.9-.4 3.1 0s2.1 1.1 2.6 1.7.6 1.2.3 1.4z" fill="#263238"/><path d="m337.1 69.6c-.3.2-.8-.1-1.5-.4s-1.5-.7-2.5-1-1.9-.4-2.6-.5-1.3-.2-1.4-.5.2-.8 1.1-1.3c.9-.4 2.3-.6 3.7-.1 1.4.4 2.5 1.3 3 2.2.5.7.5 1.4.2 1.6z" fill="#263238"/><path d="m365.8 68.8s-9.9.6-19.6-6.3c-6.4-4.5-14.2-7.5-16.2-6.4s-3.5 8.2-10.7 9.1c0 0-1.7 13.6-7 12.3-5.3-1.4 1.4-21.8 1.4-21.8l14.3-4.3 14.9-.4 13.5 2.2 12 5.9z" fill="#263238"/><path d="m382.5 260.7s-15 22.9-18.5 23.3c-.9.1-1.7.8-3.9 1.2-.5.1-2.2-.4-2.7-.4-8 1-19.7 2.1-20-.3-.4-3.7 3.4-3.9 6.7-4.5 2.2-.4 4.6-1 6.3-1.5 1.4-.4 2.4-1.6 2.5-3 .5-3.5 1.3-10 1.6-11.5.4-2.1 10.3-10.4 10.3-10.4z" fill="#b78876"/><path d="m340.1 277.4 32.8-8.2c1.3-.3 2.7.5 3 1.8.4 1.4-.4 2.8-1.8 3.1l-32.6 8.4c-.9.2-1.9-.3-2.2-1.2l-.5-1.6c-.3-1 .3-2.1 1.3-2.3z" fill="#263238"/><path d="m359.2 272.6s-8.5 3-15 5.8c-.8.4-1.8.6-2.7.5-.9 0-1.9-.5-2.3-1.3-.6-1.2.9-1.7 1.9-2.5s2.5-1.9 3.8-2.9c1.6-1.2 2.5-2.6 2.8-4.2 1.8-7.4 9.6-15.9 17.1-14.1l1.8-2.1 15.8 8.9" fill="#b78876"/><path d="m335.3 277.5-5.4 5.2.1.4 5.1-1.5c0-.3.1-.5.4-.6s.6.1.7.4-.1.6-.4.7-.5 0-.7-.3l-5.1 1.5.1.4 7.5 1.3c-.6-2.5 1.7-3.5 1.7-3.5l-.7-2.4c-2.2.9-3.3-1.6-3.3-1.6z" fill="#0cc4b4"/><path d="m360.7 281.8s.1.3-.2.8-.8 1-1.6 1.5c-.4.3-.8.6-1.4.7-.5.2-1.1.3-1.7.4-1.2.2-2.6.2-4 .3-2.8.2-5.3.3-7.2.4-1.8.1-3 .1-3 0s1.1-.2 3-.4c1.8-.2 4.4-.3 7.2-.5 1.4-.1 2.7-.1 3.9-.3.6-.1 1.2-.2 1.7-.3s.9-.4 1.3-.6c.8-.5 1.3-1 1.6-1.4.3-.3.4-.6.4-.6z" fill="#aa6550"/><path d="m365.5 281.4c.1 0-.2.5-.7 1.2s-1.3 1.6-2.5 2.2-2.5.7-3.3.5c-.4-.1-.8-.2-1-.3s-.3-.2-.3-.2h.4c.2 0 .6.1 1 .1.8.1 2 0 3.1-.6s1.9-1.4 2.5-2c.4-.5.8-.9.8-.9z" fill="#aa6550"/><path d="m359.5 272.2c0 .1-.9.5-2.5 1.2-1.5.7-3.7 1.6-6.1 2.6s-4.6 1.8-6.2 2.4-2.7.7-2.7.6c0 0 .2-.1.7-.3.4-.1 1.1-.4 1.9-.7 1.7-.7 3.8-1.6 6.1-2.5 2.4-1 4.6-1.9 6.1-2.5 1.7-.6 2.6-.9 2.7-.8z" fill="#aa6550"/><path d="m273.2 175.6s35.3-.1 39.9 14.5l-39.3.1z" fill="#b78876"/><path d="m342.1 343.3h123.4v48h-123.4z" fill="#fff"/><path d="m342.1 343.3h123.4v10.3h-123.4z" fill="#0cc4b4"/><path d="m349.1 366.4h12.2v12.2h-12.2z" fill="#fff"/><path d="m361.3 378.6s0-.3-.1-.9c0-.6 0-1.5-.1-2.5 0-2.2-.1-5.2-.1-8.8l.2.2c-3.6 0-7.7 0-12.2 0-.1.1.5-.5.3-.3v.1.1.2.4.8 1.6 3.2 5.7l-.2-.2c3.6 0 6.6.1 8.8.1 1 0 1.9 0 2.5.1.5.2.8.2.9.2 0 0-.3 0-.8.1-.6 0-1.5 0-2.5.1-2.1 0-5.2.1-8.9.1h-.2v-.2c0-1.8 0-3.7 0-5.7 0-1 0-2.1 0-3.2 0-.5 0-1.1 0-1.6v-.8-.4-.2-.1-.1c-.2.2.3-.3.3-.3h12.2.2v.2c0 3.7-.1 6.8-.1 8.9 0 1 0 1.8-.1 2.5-.1.4-.1.7-.1.7z" fill="#263238"/><path d="m361.3 366.4-12.2 12.2" fill="#fafafa"/><path d="m349.1 378.6c-.1-.1 2.5-2.9 5.9-6.3s6.2-6 6.3-5.9-2.5 2.9-5.9 6.3-6.2 6-6.3 5.9z" fill="#0cc4b4"/><path d="m364.9 366.4h12.2v12.2h-12.2z" fill="#263238"/><path d="m380.8 366.4h12.2v12.2h-12.2z" fill="#455a64"/><path d="m396.6 366.4h12.2v12.2h-12.2z" fill="#0cc4b4"/><path d="m412.5 366.4h12.2v12.2h-12.2z" fill="#0cc4b4"/><path d="m412.5 366.4h12.2v12.2h-12.2z" fill="#fff" opacity=".5"/><path d="m428.4 366.4h12.2v12.2h-12.2z" fill="#0cc4b4"/><path d="m428.4 366.4h12.2v12.2h-12.2z" opacity=".3"/><path d="m444.2 366.4h12.2v12.2h-12.2z" fill="#0cc4b4"/><path d="m444.2 366.4h12.2v12.2h-12.2z" opacity=".7"/><path d="m465.5 391.3s0-.3 0-.9 0-1.4 0-2.5c0-2.2 0-5.4 0-9.5 0-8.3-.1-20.2-.1-35.1l.2.2c-31 0-74.8 0-123.3.1l.3-.3v48l-.2-.2c35.7 0 66.5.1 88.4.1 11 0 19.7.1 25.7.1h6.9 1.8.3s-.2 0-.6 0-1 0-1.8 0c-1.6 0-3.9 0-6.8 0-6 0-14.7 0-25.6.1-21.9 0-52.8.1-88.6.1h-.2v-.3c0-15 0-31.2 0-48v-.3h.3c48.5 0 92.4.1 123.3.1h.2v.2c0 14.9-.1 26.9-.1 35.2v9.5 2.4c-.1.7-.1 1-.1 1z" fill="#263238"/><path d="m63.2 65.4h114.5v83.6h-114.5z" fill="#fff"/><path d="m63.2 65.4h114.5v10.5h-114.5z" fill="#0cc4b4"/><path d="m69.4 70.9c0 .7-.5 1.3-1.2 1.3s-1.2-.6-1.2-1.3.5-1.3 1.2-1.3c.6 0 1.2.6 1.2 1.3z" fill="#fff"/><path d="m74.2 70.9c0 .7-.5 1.3-1.2 1.3s-1.2-.6-1.2-1.3.5-1.3 1.2-1.3 1.2.6 1.2 1.3z" fill="#fff"/><path d="m79.1 70.9c0 .7-.5 1.3-1.2 1.3s-1.2-.6-1.2-1.3.5-1.3 1.2-1.3c.6 0 1.2.6 1.2 1.3z" fill="#fff"/><path d="m74 86.1h16.3v41.1h-16.3z" fill="#0cc4b4"/><path d="m99.2 86.1h16.3v41.1h-16.3z" fill="#ebebeb"/><path d="m124.4 86.1h16.3v41.1h-16.3z" fill="#fafafa"/><path d="m149.5 86.4h16.3v41.1h-16.3z" fill="#e0e0e0"/><path d="m72.2 131.6h98.9v9.4h-98.9z" fill="#0cc4b4"/><path d="m163.6 139.1 2.1 11.3 1.7-3.1 3.8 5.6 1.9-1.3-3.8-5.6 3.5-.5z" fill="#263238"/><path d="m177.7 149s0-.5 0-1.5 0-2.5 0-4.4c0-3.9 0-9.6-.1-16.9 0-14.6-.1-35.4-.1-60.8l.2.2c-32.1 0-71.7 0-114.5 0l.3-.3v83.6l-.2-.2c33.9 0 62.5.1 82.6.1 10.1 0 18 0 23.5.1h6.2 1.6c.3.1.5.1.5.1s-.2 0-.5 0c-.4 0-.9 0-1.6 0-1.4 0-3.5 0-6.2 0-5.4 0-13.4 0-23.5.1-20.2 0-48.8.1-82.8.1h-.2v-.2c0-25.2 0-53.6 0-83.6v-.3h.3 114.5.2v.2c0 25.4-.1 46.3-.1 60.9 0 7.3 0 13-.1 16.8v4.4z" fill="#263238"/><path d="m64.6 390.5h116.6v45.3h-116.6z" fill="#fff"/><path d="m64.6 390.5h116.6v9.7h-116.6z" fill="#0cc4b4"/><path d="m78.4 407.6h11.5v11.5h-11.5z" fill="#0cc4b4"/><path d="m85.4 414.5h11.5v11.5h-11.5z" fill="#0cc4b4"/><path d="m105.7 407.6h11.5v11.5h-11.5z" fill="#0cc4b4"/><path d="m112.7 414.5h11.5v11.5h-11.5z" fill="#fff"/><path d="m124.1 426s0-.3-.1-.9c0-.6 0-1.4-.1-2.4 0-2-.1-4.8-.1-8.2l.2.2c-3.3 0-7.3 0-11.5 0-.1.1.5-.5.3-.3v.1.2.4.8 1.5 3 5.4l-.2-.2c3.4 0 6.2.1 8.2.1 1 0 1.7 0 2.4.1.6.1.9.1.9.2 0 0-.3 0-.8.1-.6 0-1.4 0-2.3.1-2 0-4.9.1-8.4.1h-.2v-.2c0-1.7 0-3.5 0-5.4 0-1 0-2 0-3 0-.5 0-1 0-1.5v-.8-.4-.2-.1c-.2.2.3-.3.3-.3h11.5.2v.2c0 3.5-.1 6.4-.1 8.4 0 .9 0 1.7-.1 2.3-.1.4-.1.7-.1.7z" fill="#0cc4b4"/><path d="m131.2 407.6h11.5v11.5h-11.5z" fill="#fff"/><path d="m142.6 419s0-.3-.1-.9c0-.6 0-1.4-.1-2.4 0-2-.1-4.8-.1-8.2l.2.2c-3.3 0-7.3 0-11.5 0-.1.1.5-.5.3-.3v.1.2.4.8 1.5 3 5.4l-.2-.2c3.4 0 6.2.1 8.2.1 1 0 1.7 0 2.4.1.6.2.9.2.9.2s-.3 0-.8.1c-.6 0-1.4 0-2.3.1-2 0-4.9.1-8.4.1h-.2v-.2c0-1.7 0-3.5 0-5.4 0-1 0-2 0-3 0-.5 0-1 0-1.5v-.8-.4-.2-.1c-.2.2.3-.3.3-.3h11.5.2v.2c0 3.5-.1 6.4-.1 8.4 0 .9 0 1.7-.1 2.3 0 .5 0 .7-.1.7z" fill="#0cc4b4"/><path d="m138.1 414.5h11.5v11.5h-11.5z" fill="#fff"/><path d="m149.6 426s0-.3-.1-.9c0-.6 0-1.4-.1-2.4 0-2-.1-4.8-.1-8.2l.2.2c-3.3 0-7.3 0-11.5 0-.1.1.5-.5.3-.3v.1.2.4.8 1.5 3 5.4l-.2-.2c3.4 0 6.2.1 8.2.1 1 0 1.7 0 2.4.1.6.1.9.1.9.2 0 0-.3 0-.8.1-.6 0-1.4 0-2.3.1-2 0-4.9.1-8.4.1h-.2v-.2c0-1.7 0-3.5 0-5.4 0-1 0-2 0-3 0-.5 0-1 0-1.5v-.8-.4-.2-.1c-.2.2.3-.3.3-.3h11.5.2v.2c0 3.5-.1 6.4-.1 8.4 0 .9 0 1.7-.1 2.3-.1.4-.1.7-.1.7z" fill="#0cc4b4"/><path d="m138.1 414.5h4.5v4.5h-4.5z" fill="#0cc4b4"/><path d="m154.6 407.6h11.5v11.5h-11.5z" fill="#0cc4b4"/><path d="m161.5 414.5h11.5v11.5h-11.5z" fill="#0cc4b4"/><path d="m161.5 414.5h4.5v4.5h-4.5z" fill="#fafafa"/><path d="m181.2 435.8s0-.3 0-.8 0-1.3 0-2.3c0-2.1 0-5.1 0-9 0-7.8-.1-19.1-.1-33.2l.2.2c-29.3 0-70.7 0-116.6.1l.3-.3v45.3l-.2-.2c33.7 0 62.8.1 83.6.1 10.4 0 18.6.1 24.3.1h6.5 1.7.3s-.2 0-.6 0-.9 0-1.7 0c-1.5 0-3.7 0-6.5 0-5.7 0-13.9 0-24.2.1-20.7 0-49.9.1-83.7.1h-.2v-.3c0-14.2 0-29.5 0-45.3v-.3h.3c45.9 0 87.3.1 116.6.1h.2v.2c0 14.1-.1 25.4-.1 33.3v9 2.3c-.1.5-.1.8-.1.8z" fill="#263238"/><path d="m89.4 220.1h80.9v138.8h-80.9z" fill="#fff"/><path d="m89.4 220.1h80.9v11.7h-80.9z" fill="#0cc4b4"/><path d="m108.8 246.4 1 13 3.6-4.7 6.1-.3z" fill="#0cc4b4"/><path d="m143.8 246.4s.1 0 .2.1c.2.1.4.3.6.4.6.4 1.3 1 2.2 1.6 2 1.5 4.7 3.4 7.8 5.7l.3.2h-.4c-1.8.1-3.8.2-5.8.3h-.2l.1-.1c-1.3 1.7-2.5 3.3-3.6 4.7l-.2.3v-.4c-.2-3.7-.5-7-.6-9.4-.1-1.1-.1-2-.2-2.7 0-.3 0-.5 0-.7-.2.1-.2 0-.2 0v.3c0 .2 0 .5.1.7.1.7.1 1.6.2 2.7.2 2.4.5 5.6.8 9.2l-.3-.1c1.1-1.5 2.3-3.1 3.6-4.7v-.1h.1.2c2-.1 4-.2 5.8-.2l-.1.3c-3-2.3-5.6-4.3-7.5-5.8-.9-.7-1.6-1.3-2.2-1.7-.2-.2-.4-.3-.6-.5 0 0-.1-.1-.1-.1z" fill="#0cc4b4"/><path d="m106.5 302.8c-.1-.1 4-4.3 9.1-9.5s9.2-9.4 9.3-9.3-4 4.3-9.1 9.5-9.3 9.4-9.3 9.3z" fill="#0cc4b4"/><path d="m162.6 293.3c-.1 0 0-1.1-.4-2.9s-1.6-4.5-4.2-6.6c-1.3-1-3-1.9-4.9-2.3-1.9-.3-4.1-.3-6.2.5-1 .4-2 .9-2.9 1.7-.9.7-1.8 1.6-2.4 2.5-1.4 2-2.2 4.4-2.2 7 0 2.5.8 5 2.2 7 .7 1 1.5 1.8 2.4 2.5s1.9 1.3 2.9 1.7c2.1.8 4.2.9 6.2.5 1.9-.4 3.6-1.2 4.9-2.3 2.7-2.1 3.8-4.8 4.2-6.6.5-1.7.4-2.7.4-2.7v.8c0 .2 0 .6-.1.9-.1.4-.1.8-.2 1.2-.4 1.8-1.5 4.5-4.2 6.7-1.3 1.1-3 2-5 2.3-2 .4-4.2.3-6.3-.5-1.1-.4-2.1-1-3-1.7s-1.8-1.6-2.5-2.6c-1.4-2-2.2-4.5-2.3-7.2 0-2.6.8-5.1 2.3-7.2.7-1 1.6-1.9 2.5-2.6s2-1.3 3-1.7c2.1-.8 4.3-.9 6.3-.5s3.7 1.3 5 2.3c2.7 2.2 3.8 4.9 4.2 6.7.1.5.2.9.2 1.2.1.4.1.7.1.9.1.7 0 1 0 1z" fill="#0cc4b4"/><path d="m152.2 324.1s.1.1.3.2c.2.2.5.4.8.7.8.7 1.8 1.6 3.2 2.7l.1.1-.1.1c-3.2 3.6-8.1 9.2-13.6 15.6h-.1c-.5.1-1.1.2-1.6.2-1 .2-2 .3-2.9.4h-.2v-.2c.4-1.9.7-3.7 1.1-5.4 3.7-4.3 6.9-8 9.2-10.6 2.2-2.5 3.7-3.9 3.8-3.8 0 0-.1.1-.3.3s-.4.4-.7.8c-.6.7-1.6 1.7-2.7 3-2.3 2.6-5.5 6.3-9.1 10.7v-.1c-.3 1.7-.7 3.5-1 5.4l-.2-.2c1-.1 1.9-.3 2.9-.4.6-.1 1.1-.2 1.6-.2l-.1.1c5.6-6.3 10.5-11.9 13.7-15.5v.1c-1.3-1.2-2.3-2.1-3.1-2.8-.3-.3-.6-.5-.8-.8-.1-.3-.2-.4-.2-.4z" fill="#0cc4b4"/><path d="m122.6 343s0-.1 0-.4 0-.6 0-1.1c0-1 0-2.3 0-4 0-3.5 0-8.3-.1-14.1l.1.1c-5.5 0-12 0-19 0 0 0 .3-.3.2-.2v.1.2.3.7 1.3 2.6 5 9.2l-.1-.1c5.6 0 10.4.1 13.7.1h3.9 1c.1.3.3.3.3.3s-.1 0-.3 0c-.3 0-.6 0-1 0-.9 0-2.2 0-3.8 0-3.4 0-8.1 0-13.8.1h-.1v-.1c0-2.8 0-5.9 0-9.2 0-1.6 0-3.3 0-5 0-.9 0-1.7 0-2.6 0-.4 0-.9 0-1.3v-.7-.3-.2-.1c-.1.1.2-.2.2-.2h19 .1v.1c0 5.8-.1 10.7-.1 14.2v4 1c-.2.2-.2.3-.2.3z" fill="#0cc4b4"/><path d="m106.5 323.5c0 .1-1.8.2-4.1.2s-4.1-.1-4.1-.2 1.8-.2 4.1-.2c2.2 0 4.1.1 4.1.2z" fill="#0cc4b4"/><path d="m103.6 327.3c-.1 0-.2-2.1-.2-4.6 0-2.6.1-4.6.2-4.6s.2 2.1.2 4.6c-.1 2.5-.1 4.6-.2 4.6z" fill="#0cc4b4"/><path d="m170.3 358.9s0-.2 0-.7 0-1.1 0-2c0-1.7 0-4.3 0-7.6 0-6.7 0-16.4-.1-28.7 0-24.5-.1-59.2-.1-99.8l.2.2c-24.9 0-52.3 0-80.9 0l.3-.3c0 52.9 0 101.5-.1 138.8l-.2-.2c24.8 0 45 .1 59 .1 7 0 12.5 0 16.2.1h4.2c1 .1 1.5.1 1.5.1s-.5 0-1.4 0c-1 0-2.4 0-4.2 0-3.7 0-9.2 0-16.2.1-14 0-34.3.1-59.1.1h-.2v-.2c0-37.3 0-85.8-.1-138.8v-.3h.3 80.9.2v.2c0 40.7-.1 75.4-.1 100 0 12.2-.1 22-.1 28.6v7.6 1.9z" fill="#263238"/></svg>